<svg width="30" height="30" viewBox="0 0 30 30" xmlns="http://www.w3.org/2000/svg"><path d="M25.607 4.393A14.902 14.902 0 0 0 15 0C10.993 0 7.226 1.56 4.393 4.393A14.902 14.902 0 0 0 0 15c0 4.007 1.56 7.774 4.393 10.607A14.902 14.902 0 0 0 15 30c4.007 0 7.774-1.56 10.607-4.393A14.902 14.902 0 0 0 30 15c0-4.007-1.56-7.773-4.393-10.607zM15 28.243C7.698 28.242 1.758 22.301 1.758 15 1.758 7.698 7.698 1.758 15 1.758c7.302 0 13.242 5.94 13.242 13.242 0 7.302-5.94 13.242-13.242 13.242z"/><path d="M15 3.438C8.624 3.438 3.438 8.624 3.438 15c0 6.376 5.186 11.563 11.562 11.563 6.376 0 11.562-5.187 11.562-11.563S21.376 3.438 15 3.438zm0 21.367c-5.406 0-9.805-4.399-9.805-9.805S9.594 5.195 15 5.195 24.805 9.594 24.805 15 20.406 24.805 15 24.805z"/><path d="M14.91 14.187c-.73 0-1.324-.594-1.324-1.325v-.328c0-.73.594-1.325 1.325-1.325h2.623V9.451H15.9v-2.03h-1.758v2.127a3.088 3.088 0 0 0-2.314 2.986v.328c0 1.7 1.383 3.083 3.083 3.083a1.504 1.504 0 0 1 0 3.007h-2.445v1.757h1.676v1.87H15.9v-2.023a3.267 3.267 0 0 0 2.272-3.108 3.265 3.265 0 0 0-3.261-3.261z"/></svg>