<svg width="30" height="30" viewBox="0 0 30 30" xmlns="http://www.w3.org/2000/svg"><path d="M27.363 12.706h-.234V8.765a2.645 2.645 0 0 0-2.637-2.647h-.176V2.765a.88.88 0 0 0-.878-.883h-5.684v-1A.88.88 0 0 0 16.875 0H2.812a.88.88 0 0 0-.878.882v5.332A2.65 2.65 0 0 0 0 8.764v18.589A2.645 2.645 0 0 0 2.637 30h21.855a2.645 2.645 0 0 0 2.637-2.647V22h.234A2.645 2.645 0 0 0 30 19.353v-4a2.645 2.645 0 0 0-2.637-2.647zM22.56 3.647v2.47h-4.805v-2.47h4.805zM3.69 1.765h12.305v4.353H3.691V1.765zm20.801 26.47H2.637a.882.882 0 0 1-.88-.882v-1.118h23.614v1.118a.882.882 0 0 1-.879.882zm.88-3.764H1.757V8.765c0-.487.394-.883.879-.883h21.855c.485 0 .88.396.88.883v3.94H19.57a2.645 2.645 0 0 0-2.636 2.648v4A2.645 2.645 0 0 0 19.57 22h5.801v2.47zm2.87-5.118a.882.882 0 0 1-.879.882H19.57a.882.882 0 0 1-.879-.882v-4c0-.487.395-.882.88-.882h7.792c.485 0 .88.395.88.882v4z"/><path d="M22.424 17.18a.879.879 0 1 0-1.702.43.877.877 0 0 0 1.096.587.882.882 0 0 0 .606-1.016z"/></svg>