<svg width="14" height="14" viewBox="0 0 14 14" xmlns="http://www.w3.org/2000/svg"><path d="M7.266 0c.59.09 1.166.35 1.6.816.68.694 1.005 1.792.83 2.805a3.144 3.144 0 0 1-1.343 2.132l.305.489c.75-.609 1.77-.787 2.63-.385.945.412 1.605 1.45 1.712 2.573v.542c-.087.829-.446 1.629-1.038 2.144-.777.708-1.914.86-2.818.38-.913-.463-1.528-1.522-1.585-2.639h-.292a5.563 5.563 0 0 0 .123 1.862c.282 1.175.78 2.272 1.379 3.281H5.465c.497-.495.702-1.238.918-1.92.278-1.035.554-2.139.337-3.224l-.276.001c-.056.867-.418 1.713-1.033 2.251-.774.714-1.912.869-2.818.39-.884-.441-1.486-1.44-1.593-2.51v-.54c.1-1.18.827-2.265 1.834-2.642.855-.346 1.836-.13 2.559.473.086-.185.167-.373.245-.563-.269-.21-.531-.438-.734-.731-.685-.94-.791-2.347-.257-3.404C5.072.694 5.907.106 6.792 0h.474z" fill="#222" fill-rule="evenodd"/></svg>