<svg data-name="图层 6" xmlns="http://www.w3.org/2000/svg" viewBox="0 0 200 200"><path d="M140.34 80.41c4 0 5.95 1.79 5.95 5.3V107c0 3.58-2 5.3-5.95 5.3-4 0-5.94-1.79-5.94-5.3V85.71c0-3.51 1.98-5.3 5.94-5.3zm-68.57 0v37.26c0 5.88 5.3 10.67 11.89 10.67v16c0 3.58 2 5.3 5.94 5.3s5.94-1.78 5.94-5.3v-16h11.89v16c0 3.58 2 5.3 5.94 5.3s5.95-1.78 5.95-5.3v-16c6.58 0 11.89-4.79 11.89-10.67V80.41zm-9.2 0c4 0 5.94 1.79 5.94 5.3V107c0 3.58-2 5.3-5.94 5.3-4 0-6-1.79-6-5.3V85.71c.05-3.51 2.03-5.3 6-5.3zm63.33-20.52l5.94-9.2c1-1.53.64-2.75-1.08-3.64s-3.07-.58-4 1l-5.94 9.2c0 .06-.07.06-.07.13A31.55 31.55 0 0 0 101.49 51a32.09 32.09 0 0 0-17.71 5.24l-5.3-8.31a2.74 2.74 0 0 0-4-1c-1.72.9-2 2.11-1.08 3.65l5.94 9.2a.06.06 0 0 0 .06.06 25 25 0 0 0-7.5 17.76h59.37a24.85 24.85 0 0 0-6.46-16.6 3.12 3.12 0 0 0 1.09-1.11zm-39.3 3.26a2.8 2.8 0 0 1-2.94-2.68 2.84 2.84 0 0 1 2.94-2.68 2.8 2.8 0 0 1 2.94 2.68 2.73 2.73 0 0 1-2.94 2.68zm29.71 0a2.8 2.8 0 0 1-2.94-2.68 2.85 2.85 0 0 1 2.94-2.68 2.8 2.8 0 0 1 2.94 2.68 2.76 2.76 0 0 1-2.94 2.68z" fill="#fffac5"/></svg>