<svg id="图层_2" data-name="图层 2" xmlns="http://www.w3.org/2000/svg" viewBox="0 0 200 200"><defs><style>.cls-1{fill:#fffac5}</style></defs><path class="cls-1" d="M118.12 141.36l-31.87 9.19c-2.38.68-5-.05-5.67-1.7s.68-3.57 3.12-4.25l31.87-9.19c2.38-.68 5 .06 5.67 1.7s-.73 3.52-3.12 4.25zm6.58-28l-.9 1.64c-1 1.7-2 3.4-2.22 3.86a5 5 0 0 1-2.43 1.53c-1 .23-3.75.91-6.13 1.59l-26.77 7.71c-2.38.68-5-.06-5.67-1.7s.68-3.52 3.12-4.25l27.39-7.89a11.62 11.62 0 0 0 6.24-4.76s8.11-15.26 8.11-21.44c0-11.06-11.06-20.08-24.61-20.08s-24.68 9-24.68 20.08c0 8 11.63 27.68 11.63 27.68 1.13 1.87.06 3.4-2.33 3.4a8.24 8.24 0 0 1-6.4-3.4s-.74-1.2-2.22-3.92c-5.61-10.32-8.5-18.32-8.5-23.76 0-14.58 14.52-26.38 32.38-26.38s32.39 11.85 32.39 26.37c.05 5.39-2.78 13.38-8.4 23.71zm-6.58 17.35l-31.87 9.19c-2.38.68-5-.06-5.67-1.7s.68-3.57 3.12-4.26l31.87-9.18c2.38-.68 5 0 5.67 1.7s-.73 3.57-3.12 4.25zm11.01-71.85l6.07-6.63 4.31 4.71-6 6.64zm-30.52-4.42V43.1h6.13v11.34zm-28.68 8.65l-6.57-6 4.71-4.31 6.64 6zm69.44 22.8h11.34V92h-11.34zm-86.98 0h11.34V92H52.39z"/><path class="cls-1" d="M100.29 63.26c-14.89 0-27 10.51-27 23.57 0 9.4 12.79 32.57 12.79 32.57l3.33 5.09 22.13-6.85a12.68 12.68 0 0 0 6.85-5.55s8.88-18 8.88-25.2c.04-13.05-12.1-23.63-26.98-23.63zm-8.61 18.85c-.57.37-5.28 3.72-3.24 10.36a3.12 3.12 0 0 1-2.07 3.89 2.94 2.94 0 0 1-.92.14 3.12 3.12 0 0 1-3-2.2 15.22 15.22 0 0 1 5.86-17.45 3.12 3.12 0 0 1 3.35 5.26z"/></svg>