<svg id="图层_3" data-name="图层 3" xmlns="http://www.w3.org/2000/svg" viewBox="0 0 200 200"><defs><style>.cls-1{fill:#fffac5}</style></defs><path class="cls-1" d="M131.71 99.14c-.14-13.48 11.23-19.94 11.79-20.22-6.46-9.13-16.43-10.39-19.94-10.53-8.42-1-16.56 4.77-20.78 4.77s-11-4.77-18-4.63a26.71 26.71 0 0 0-22.6 13.34c-9.69 16.29-2.53 40.43 6.88 53.63 4.66 6.5 10.14 13.76 17.3 13.5 6.88-.28 9.54-4.35 17.83-4.35s10.67 4.35 18 4.21 12.21-6.6 16.71-13.06a59.94 59.94 0 0 0 7.58-15.16c-.14-.14-14.46-5.48-14.74-21.48z"/><path class="cls-1" d="M118.68 61.37c3.8-4.49 6.32-10.81 5.62-17-5.48.14-12.07 3.51-16 8-3.51 3.93-6.59 10.39-5.75 16.43 6.03.57 12.34-2.94 16.13-7.43z"/></svg>