<svg id="图层_5" data-name="图层 5" xmlns="http://www.w3.org/2000/svg" viewBox="0 0 200 200"><defs><style>.cls-1{fill:#fffac5;fill-rule:evenodd}</style></defs><path class="cls-1" d="M139.57 97.6a56.68 56.68 0 0 0-3.36-11.43l-.32-.79C137.43 57.84 119.6 46 101.24 46c-16 0-34.35 11.31-33.91 39.27h-.12a1.18 1.18 0 0 0-.31.21l-.08.12a55.46 55.46 0 0 0-3.55 11.62c-1.94 2.55-13 18-4.92 30.43 0 0 2.15 2.3 7.09-7.4a35.53 35.53 0 0 0 10.69 14.55c-4.9 1.08-8.48 3.07-9.44 5.44a3.87 3.87 0 0 0-1 2.42c0 4.19 8.11 7.58 18.12 7.58 8.47 0 14.66-3 16.37-6.44h1.67c1.33 3.63 8.82 6.42 17.89 6.42 10 0 16.87-4.17 16.87-8.36v-.38c0-2.88-3.86-5.39-9.54-6.67a34.86 34.86 0 0 0 10.43-14.52c4.93 9.67 7.07 7.38 7.07 7.38 7.75-12-2.49-26.78-5-30.13zm-1.23 1.26c-4.11 4-16.5 13.91-37.14 13.59a62.49 62.49 0 0 1-10.76-1.07l-.47-.09v.47c-.24 2.66-.3 6.24-.34 8.85 0 1.47 0 2.63-.08 3-.14 1.2-.57 1.37-2.88 1.8a5.66 5.66 0 0 1-1.13.1c-3.7 0-8.69-2.68-9.69-3.23-.7-5 .79-12.57 1.26-14.8l.07-.32-.3-.15a47.09 47.09 0 0 1-12.67-8.5L64 98.1a54.14 54.14 0 0 1 3.31-11.38c2.12 4.33 12.59 15.53 31.79 15.53s34.19-7.4 36.78-14.52a56.15 56.15 0 0 1 2.83 10l-.38 1.09m0 0"/><path class="cls-1" d="M139.57 97.6a56.68 56.68 0 0 0-3.36-11.43l-.32-.79C137.43 57.84 119.6 46 101.24 46c-16 0-34.35 11.31-33.91 39.27h-.12a1.18 1.18 0 0 0-.31.21l-.08.12a55.46 55.46 0 0 0-3.55 11.62c-1.94 2.55-13 18-4.92 30.43 0 0 2.15 2.3 7.09-7.4a35.53 35.53 0 0 0 10.69 14.55c-4.9 1.08-8.48 3.07-9.44 5.44a3.87 3.87 0 0 0-1 2.42c0 4.19 8.11 7.58 18.12 7.58 8.47 0 14.66-3 16.37-6.44h1.67c1.33 3.63 8.82 6.42 17.89 6.42 10 0 16.87-4.17 16.87-8.36v-.38c0-2.88-3.86-5.39-9.54-6.67a34.86 34.86 0 0 0 10.43-14.52c4.93 9.67 7.07 7.38 7.07 7.38 7.75-12-2.49-26.78-5-30.13m-1.23 1.26c-4.11 4-16.5 13.91-37.14 13.59a62.49 62.49 0 0 1-10.76-1.07l-.47-.09v.47c-.24 2.66-.3 6.24-.34 8.85 0 1.47 0 2.63-.08 3-.14 1.2-.57 1.37-2.88 1.8a5.66 5.66 0 0 1-1.13.1c-3.7 0-8.69-2.68-9.69-3.23-.7-5 .79-12.57 1.26-14.8l.07-.32-.3-.15a47.09 47.09 0 0 1-12.67-8.5L64 98.1a54.14 54.14 0 0 1 3.31-11.38c2.12 4.33 12.59 15.53 31.79 15.53s34.19-7.4 36.78-14.52a56.15 56.15 0 0 1 2.83 10l-.38 1.09m0 0"/></svg>