<svg id="图层_4" data-name="图层 4" xmlns="http://www.w3.org/2000/svg" viewBox="0 0 200 200"><defs><style>.cls-1{fill:#fffac5}</style></defs><path class="cls-1" d="M85.26 90a36.92 36.92 0 0 1-11.74 12.92l.54-.06h-3.63v-3.62a35.82 35.82 0 0 1 22-32.93 14.48 14.48 0 0 1 28.47 0 35.82 35.82 0 0 1 22 32.93v3.57s-11 4.77-11.13 3.58c0 0 1-1.07-5.12-1.67v-.18c-.3 0-.6.06-.9.06-14.11 0-30.67-9.17-38-20L85.26 90z"/><path class="cls-1" d="M138.14 123.78a10.49 10.49 0 0 1-4.35-1v-5.71c0 18.34-14.47 33.17-32.33 33.17s-32.28-14.83-32.34-33.17v5.71a10.49 10.49 0 0 1-4.35 1 11.17 11.17 0 0 1-10.9-11.38 11.36 11.36 0 0 1 5.72-9.94v-3.7A41.35 41.35 0 0 1 84.36 61c1.49-8.52 8.58-15 17.1-15s15.6 6.49 17.09 15a41.35 41.35 0 0 1 24.77 37.75v3.7a11.36 11.36 0 0 1 5.68 9.95 11.14 11.14 0 0 1-10.9 11.38zm-4.35-13.52v-3.16a.06.06 0 0 1-.06-.06c0 1.25.06 2.5.06 3.22zm-64.67.06c0-.42 0-1.07.06-1.73h-.06zm32.34-59.67a13 13 0 0 0-12 8.57 42.31 42.31 0 0 1 12-1.73 44.53 44.53 0 0 1 12 1.73 12.89 12.89 0 0 0-12-8.57zm37.63 48.17a37.64 37.64 0 0 0-75.27 0v2.33a5.15 5.15 0 0 1 .95-.12 10.48 10.48 0 0 1 4.35 1v2a44.23 44.23 0 0 0 12.44-14.3h4.65A48.78 48.78 0 0 1 73.35 106c-.12 1.55-.18 3.75-.18 4.82v6.2c0 16.08 12.68 29.06 28.29 29.06a28.19 28.19 0 0 0 24.71-15 57.85 57.85 0 0 1-17.45 7c-.83 1.55-3.33 2.68-6.31 2.68-3.69 0-6.67-1.73-6.67-3.81s3-3.81 6.67-3.81a9.24 9.24 0 0 1 4.46 1 55.33 55.33 0 0 0 22-9.89 29 29 0 0 0 1-7.26v-6.2c0-1.13-.12-3.45-.24-5.06a30.68 30.68 0 0 0-5.24-.89v-.18c-.35 0-.71.06-1 .06a46.76 46.76 0 0 1-39.03-20.78h5.18a42.56 42.56 0 0 0 33.77 16.67c.36 0 .72-.06 1-.06v.45a38.88 38.88 0 0 1 9.53 2v-1a10.48 10.48 0 0 1 4.35-1 4.56 4.56 0 0 1 1 .12l-.06-2.39zm-47.16 10.6l-3.16 2.92 3.16 2.92a6.2 6.2 0 0 1-5.24 2.74 5.73 5.73 0 1 1 0-11.43 6.77 6.77 0 0 1 5.24 2.85zm25.19-2.74a6.36 6.36 0 0 1 5.24 2.74l-3.16 2.92 3.16 2.92a6.19 6.19 0 0 1-5.24 2.74 5.68 5.68 0 1 1 0-11.32z"/></svg>