<svg id="图层_1" data-name="图层 1" xmlns="http://www.w3.org/2000/svg" viewBox="0 0 200 200"><defs><style>.cls-1{fill:#fffac5}</style></defs><path class="cls-1" d="M78.3 93.74a7.95 7.95 0 1 0 8 7.89 7.82 7.82 0 0 0-8-7.89z"/><path class="cls-1" d="M155.88 124.86a98.1 98.1 0 0 0-3.94-17.2 102.15 102.15 0 0 0-7.23-16.77 50.15 50.15 0 0 0-9.87-13.15c-4.27-3.94-8.54-5.92-12.93-5.92a3.45 3.45 0 0 0-1.75.44 52.61 52.61 0 0 1-9.75 3.74c-7.89 2-15.13 1-26.41-3.84a3.88 3.88 0 0 0-1.54-.33 17.44 17.44 0 0 0-4.71.66c-12.49 3.17-20.16 17.74-23.56 26.18a101 101 0 0 0-5.48 18.85 65.11 65.11 0 0 0-.71 17.53 22.7 22.7 0 0 0 3.5 10.19 10.77 10.77 0 0 0 9.21 4.83 22.71 22.71 0 0 0 5.48-.66c6.24-1.54 10.52-5.7 14.68-9.54 4.27-4.05 8.44-8 14.9-9.64a26.83 26.83 0 0 1 6.8-.77c8.87 0 16 5.48 22.9 10.85 6.25 4.82 12.16 9.43 19.18 9.43a10.19 10.19 0 0 0 2.63-.33c4.22-1.1 11.01-5.7 8.6-24.55zm-77.47-10.3a12.93 12.93 0 1 1 12.93-13 13.12 13.12 0 0 1-12.93 13zm34-11.61c-2.85-.66-4.17-3.51-3.18-6.36a5 5 0 0 1 6.36-3.18c2.85.66 4.16 3.51 3.17 6.36a5.31 5.31 0 0 1-6.38 3.23zm12.27 7.67a4.92 4.92 0 0 1-6.35 3.17c-2.85-.65-4.17-3.5-3.18-6.35a4.93 4.93 0 0 1 6.35-3.18c2.38 1.1 4.25 3.95 3.15 6.36zm.66-12c-2.85-.66-4.16-3.51-3.18-6.35a4.94 4.94 0 0 1 6.36-3.18c2.85.66 4.16 3.5 3.18 6.35a5.43 5.43 0 0 1-6.39 3.23zm12.6 8.44a4.94 4.94 0 0 1-6.35 3.18c-2.85-.66-4.17-3.51-3.18-6.36a4.94 4.94 0 0 1 6.35-3.18 5.07 5.07 0 0 1 3.15 6.41z"/><path class="cls-1" d="M100.76 72.81c-1 .22-2 .11-2.08-.44L96.82 68c-1.43-3.29 2.85-7.45 9.42-9.43 4.6-1.31 7.45-4.27 6.47-6.46l-2.63-6c-.22-.55.44-1.2 1.53-1.53s2.08-.11 2.3.33l2.63 6c1.43 3.29-2.85 7.46-9.42 9.43a12.65 12.65 0 0 0-5.37 3c-1.32 1.31-1.64 2.52-1.21 3.5l1.87 4.39c.22.54-.44 1.2-1.54 1.53.13.05 0 .05-.11.05z"/></svg>