<svg width="18" height="17" viewBox="0 0 18 17" xmlns="http://www.w3.org/2000/svg"><g fill="none" fill-rule="evenodd"><path d="M2.62 17H1.345l.901-.967c.487-.522.79-1.2.872-1.936C1.85 13.203.921 12.028.425 10.68c-.497-1.347-.56-2.83-.18-4.287.453-1.75 1.518-3.344 2.997-4.49C4.85.658 6.852 0 9.03 0c2.745 0 5.058.846 6.69 2.446C17.19 3.887 18 5.832 18 7.92a7.743 7.743 0 0 1-.573 2.936 7.562 7.562 0 0 1-1.711 2.554c-1.634 1.607-3.946 2.456-6.686 2.456-1.017 0-2.078-.146-3.026-.413C5.107 16.44 3.892 17 2.62 17" fill="#FF6C07"/><path d="M8.252 9.853a4.221 4.221 0 0 0 1.767-2.043c.322.234.656.484 1.002.751l.439-.624a46.248 46.248 0 0 0-1.217-.813c.132-.51.202-1.07.21-1.683h1.367c-.017 1.435.027 2.426.132 2.97.176.815.516 1.222 1.02 1.222.422 0 .694-.27.817-.808.065-.305.126-.718.185-1.24a8.343 8.343 0 0 1-.65-.21c-.042.498-.089.89-.141 1.177-.036.2-.112.3-.229.3-.146 0-.258-.174-.334-.52-.129-.615-.167-1.79-.114-3.524h-2.04c.013-.504.018-.946.018-1.327h-.676c.003.398-.002.84-.014 1.327H8.7v.633h1.081c-.006.469-.054.9-.145 1.296a73.854 73.854 0 0 0-.804-.496l-.378.5c.314.2.64.418.98.655a3.53 3.53 0 0 1-1.692 1.886c.194.199.363.39.51.571zm-1.978-.255c.663 0 .994-.354.994-1.063V7.243c.618-.194.943-.296.975-.308a10.382 10.382 0 0 1-.017-.668 73.79 73.79 0 0 1-.958.303V5.423h1.037v-.606H7.268v-1.3H6.6v1.3H5.352v.606H6.6v1.34c-.446.127-.897.248-1.354.365l.132.704c.463-.144.87-.271 1.222-.383v1.007c0 .316-.156.474-.466.474-.235 0-.495-.023-.782-.07.046.281.082.521.105.72.293.012.565.018.817.018zm6.891 2.33l.624-.37a37.693 37.693 0 0 0-1.134-1.784l-.562.334c.404.633.761 1.24 1.072 1.82zm-7.25.184c.38-.645.702-1.269.966-1.872l-.615-.264a11.032 11.032 0 0 1-.958 1.828c.228.106.43.208.606.308zm4.798-.202l.641-.273a24.585 24.585 0 0 0-.843-1.608l-.58.255c.298.533.56 1.075.782 1.626zm-2.25.079l.65-.281a34.7 34.7 0 0 0-.835-1.635l-.58.255c.258.504.513 1.057.765 1.66z" fill="#FFF" fill-rule="nonzero"/></g></svg>