<svg xmlns="http://www.w3.org/2000/svg" viewBox="0 0 20 20"><g data-name="图层 2"><path d="M20 16.67v.12A3.21 3.21 0 0 1 16.8 20H3.2A3.21 3.21 0 0 1 0 16.79V3.21A3.21 3.21 0 0 1 3.2 0h13.6A3.21 3.21 0 0 1 20 3.21v13.46zM5.4 15.39c-3.12 0-4-2.44-2.48-3.81a3.93 3.93 0 0 1 2-.72c1.84-.2 3.56.52 5.6 1.53-1.52 1.84-3.32 3-5.12 3zm11.08-2.84c-.8-.28-1.88-.69-3.08-1.12a18.15 18.15 0 0 0 1.68-4.21h-4V5.81H16V5h-4.89V2.65h-2a.35.35 0 0 0-.32.35v2H3.92v.8H8.8v1.41h-4V8h7.8a14.06 14.06 0 0 1-1.12 2.77C9 9.94 6.24 9.26 4.52 9.7a4.19 4.19 0 0 0-2.2 1.24c-1.88 2.29-.52 5.77 3.44 5.77a8.49 8.49 0 0 0 6.4-3.48C14.8 14.51 20 16.67 20 16.67v-3.08a26.47 26.47 0 0 1-3.52-1.04z" fill="#07a0f8" data-name="图层 1"/></g></svg>