<svg xmlns="http://www.w3.org/2000/svg" viewBox="0 0 20 20"><defs><style>.cls-1{fill:#678ef5;fill-rule:evenodd}</style></defs><g id="图层_2" data-name="图层 2"><g id="图层_1-2" data-name="图层 1"><g id="UI-Elements"><g id="ic-bank"><g id="路径"><path class="cls-1" d="M20 16.67v.12A3.21 3.21 0 0 1 16.8 20H3.2A3.21 3.21 0 0 1 0 16.79V3.21A3.21 3.21 0 0 1 3.2 0h13.6A3.21 3.21 0 0 1 20 3.21v13.46z"/><path d="M16.29 14.78a.88.88 0 0 1-.88.89H4.79a.89.89 0 0 1-.89-.89v-.44a.89.89 0 0 1 .89-.89.38.38 0 0 0 .38-.37V8.44a.38.38 0 0 0-.38-.38.88.88 0 0 1-.89-.88v-.74a.88.88 0 0 1 .54-.82l5.31-2.27a.85.85 0 0 1 .7 0l5.31 2.27a.88.88 0 0 1 .54.82v.74a.89.89 0 0 1-.89.89.38.38 0 0 0-.38.37v4.64a.38.38 0 0 0 .38.38.88.88 0 0 1 .89.88v.44z" fill="#fff"/><path class="cls-1" d="M13.33 8.06H6.87a.38.38 0 0 0-.37.38v4.64a.38.38 0 0 0 .37.38h.77a.38.38 0 0 0 .36-.38v-2.72a.67.67 0 0 1 .67-.67.66.66 0 0 1 .66.67v2.72a.38.38 0 0 0 .38.38h.76a.38.38 0 0 0 .38-.38v-2.72a.67.67 0 1 1 1.33 0v2.72a.38.38 0 0 0 .37.38h.77a.38.38 0 0 0 .38-.38V8.44a.39.39 0 0 0-.37-.38z"/></g></g></g></g></g></svg>