<svg xmlns="http://www.w3.org/2000/svg" viewBox="0 0 20 18"><g data-name="图层 2"><path d="M20 4.61V1.83A1.67 1.67 0 0 0 18.55 0H1.45A1.67 1.67 0 0 0 0 1.83v2.78zM0 7.22v9A1.67 1.67 0 0 0 1.45 18h17.09A1.67 1.67 0 0 0 20 16.17v-9zm2.59 3.72a.23.23 0 0 1-.2.25h-.7a.23.23 0 0 1-.2-.25V9.39a.23.23 0 0 1 .2-.25h.7a.23.23 0 0 1 .2.25zm2.2 0a.23.23 0 0 1-.2.25h-.7a.23.23 0 0 1-.2-.25V9.39a.23.23 0 0 1 .2-.25h.7a.23.23 0 0 1 .2.25zm2.2 0a.23.23 0 0 1-.2.25H6.1a.23.23 0 0 1-.21-.25V9.39a.23.23 0 0 1 .21-.25h.69a.23.23 0 0 1 .2.25zm11 .91L17.4 15a.25.25 0 0 1-.22.21h-3.91a.27.27 0 0 1-.22-.35l.61-3.14a.23.23 0 0 1 .22-.21h3.91a.27.27 0 0 1 .21.34z" fill="#9072ea" data-name="图层 1"/></g></svg>