<svg xmlns="http://www.w3.org/2000/svg" viewBox="0 0 20 20"><g data-name="图层 2"><g data-name="图层 1"><path d="M20 16.67v.12A3.21 3.21 0 0 1 16.8 20H3.2A3.21 3.21 0 0 1 0 16.79V3.21A3.21 3.21 0 0 1 3.2 0h13.6A3.21 3.21 0 0 1 20 3.21v13.46z" fill="#ff5d54" fill-rule="evenodd"/><path d="M17.78 12.46v3.32c0 1.84-1.06 2-1.9 2v-.32c.59-.15.69-.54.69-1.42v-3.6H13.1v-.69h3.47v-1.21h1.21v1.23h1v.69zM9.45 6.65H6.11v1.79a1.61 1.61 0 0 1-.46 1.26 2.37 2.37 0 0 1-1.48.44v-.63a.82.82 0 0 0 .58-.18c.13-.11.19-.29.19-.67v-2H1.61V4.54h7.84zM8.32 6v-.8H2.74V6zm-2.2-2.56h3.61v.66h-8.4v-.66h3.61v-.5h1.18zm-4.79 6.68a7 7 0 0 0 1.18-3h1.28a6.15 6.15 0 0 1-1.79 3zm5.94-3h1.29a6.87 6.87 0 0 0 1.17 3h-.66a6.12 6.12 0 0 1-1.8-3.03zm3.12 3a6.86 6.86 0 0 0 1.19-3h1.29a6.19 6.19 0 0 1-1.81 3zm6-3h1.29a7 7 0 0 0 1.18 3h-.67a6.13 6.13 0 0 1-1.83-3.03zm-3-3.66h5.47v.66h-5.8L12.19 6h1.92V4.58h1.17V6h3.26v.65h-3.26v1.8a1.55 1.55 0 0 1-.47 1.26 2.29 2.29 0 0 1-1.48.44v-.63a.85.85 0 0 0 .58-.17c.13-.12.2-.28.2-.67v-2h-3.43l1.19-2.56h-1.48v-.69h1.79l.23-.5h1.18zM9.7 17.71a20.76 20.76 0 0 1-4.28-1 23 23 0 0 1-4.06 1v-.65a14.69 14.69 0 0 0 3.17-.8 8.32 8.32 0 0 1-2.12-1.93h1.45a8.24 8.24 0 0 0 1.63 1.43A5.88 5.88 0 0 0 7.39 14H1.92v-.68h3v-1.1H1.33v-.68H4.9v-.93h1.26v.93H9.7v.68H6.16v1.09h2.68V14a7.28 7.28 0 0 1-2.42 2.26 10.56 10.56 0 0 0 3.28.81zm2.35-7.16h1.2a4.72 4.72 0 0 1-.73 1.72v5.5h-1.13v-4.55a5.63 5.63 0 0 1-1 .37V13a3.37 3.37 0 0 0 1.66-2.45zm1.64 2.76h1a5.86 5.86 0 0 1 .73 2h-1.08a6.85 6.85 0 0 0-.65-2z" fill="#fff"/></g></g></svg>