<svg xmlns="http://www.w3.org/2000/svg" viewBox="0 0 24 22"><path d="M19.3 0c.7 0 1.4.4 1.7 1l2.7 4.8c.4.6.3 1.4-.1 2l-.5.7-2 2.7-3.2 4.4-2.2 3-1.2 1.7c-1.2 1.6-3.8 1.6-5 0L.3 7.7c-.4-.6-.5-1.3-.1-2L3 1c.4-.6 1-1 1.8-1h14.5zm-1.8 8.2c-.5-.4-1.2-.3-1.5.3l-4 6.1-4-6.1c-.4-.5-1.1-.7-1.5-.3-.5.4-.6 1.2-.3 1.7l4.1 6.2c.4.6 1 1 1.7 1s1.3-.4 1.7-1l4.1-6.2c.3-.5.2-1.3-.3-1.7zM12 2c-.5 0-.9.4-.9.9V3c-.4.1-.8.4-.8.9s.4.9.9.9c.2 0 .3-.1.5-.1-.1.5-.2 1-.5 1.3-.3.4-.9.5-1.3.1-.3-.4-.5-1-.6-1.4.4 0 .7-.3.7-.7 0-.1 0-.3-.1-.4-.4-.7-1.3-.2-1.9-.9 0 0 1.4 2.8 1.4 4.3h5.1v-.2c.2-1.4 1.5-4.1 1.5-4.1-.6.7-1.5.2-1.9.9-.1.1-.1.3-.1.4 0 .4.3.7.7.7-.1.4-.3 1-.6 1.2-.4.3-1 .3-1.3-.1-.3-.3-.4-.7-.5-1.3.1.1.3.1.5.1.5 0 .9-.4.9-.9 0-.4-.3-.8-.8-.9v-.1c0-.3-.4-.7-.9-.7z" fill="#f6c51c"/></svg>