<svg xmlns="http://www.w3.org/2000/svg" viewBox="0 0 17.76 19.92"><defs><style>.cls-4{fill-rule:evenodd;fill:#ff5d54}</style></defs><g id="图层_2" data-name="图层 2"><g id="图层_1-2" data-name="图层 1"><g id="UI-Elements"><g id="ic-qq"><path id="形状" d="M8.74 18.16c0 1-1.5 1.76-3.34 1.76s-3.33-.79-3.33-1.76 1.49-1.75 3.33-1.75 3.34.79 3.34 1.75zm3.6-1.75c-1.84 0-3.34.79-3.34 1.75s1.5 1.76 3.34 1.76 3.34-.79 3.34-1.76-1.5-1.75-3.34-1.75z" fill="#ffdd36"/><path id="路径" d="M16.25 9.75s-.25-.24-.52-.47V6.49A6.44 6.44 0 0 0 12.3.87a7.18 7.18 0 0 0-6.85 0A6.45 6.45 0 0 0 2 6.49v2.79c-.27.23-.52.47-.52.47A7.54 7.54 0 0 0 0 13.58c0 1.55.45 1.81.62 1.83s.73-.14 1.41-1.14a7.17 7.17 0 0 0 13.69 0c.69 1 1.27 1.15 1.42 1.14s.62-.28.62-1.82a7.63 7.63 0 0 0-1.51-3.83z" fill-rule="evenodd" fill="#37464f"/><path d="M3.84 10.87A7.27 7.27 0 0 0 3.77 12c0 3.54 2.33 6.42 5.2 6.42s5.2-2.87 5.2-6.42a7.28 7.28 0 0 0-.08-1.14zM7.08 3A1.61 1.61 0 0 0 5.7 4.75a1.6 1.6 0 0 0 1.38 1.77 1.61 1.61 0 0 0 1.38-1.77A1.61 1.61 0 0 0 7.08 3zm.23 2.49c-.28 0-.51-.32-.51-.73S7 4 7.31 4s.5.32.5.72-.23.75-.5.75zM10.72 3a1.62 1.62 0 0 0-1.38 1.75 1.61 1.61 0 0 0 1.38 1.77 1.61 1.61 0 0 0 1.38-1.77A1.61 1.61 0 0 0 10.72 3zM11 4.82a.48.48 0 0 0-.42-.35.51.51 0 0 0-.42.35v-.06c0-.4.23-.73.51-.73s.5.33.5.73v.06z" fill="#fff"/><path class="cls-4" d="M3.46 10.51a20.11 20.11 0 0 0-.27 3.86c.13.6.65.5 1.41.51s1.59.19 1.61-.68a16.24 16.24 0 0 1 .22-3.2c.21-.66-2.97-.49-2.97-.49z"/><path d="M3.29 11.79l3 .9A7.6 7.6 0 0 1 6.43 11c.21-.64-3-.47-3-.47-.02.2-.08.7-.14 1.26z" fill="#dd2c00" fill-rule="evenodd"/><path d="M8.89 9c2.3 0 4.17-.79 4.17-1.28S11.19 7 8.9 7s-4.16.34-4.16.75S6.6 9 8.9 9z" fill-rule="evenodd" fill="#ffdd36"/><path class="cls-4" d="M8.93 9.47a14.36 14.36 0 0 0 4.75-.82A17.52 17.52 0 0 1 16 7.7c.23 0 .5.31.61.88s.26 1-.25 1.29A16.14 16.14 0 0 1 9 11.94h-.17a16.32 16.32 0 0 1-7.35-2.07c-.49-.28-.35-.71-.25-1.29s.39-.88.62-.88a15.55 15.55 0 0 1 2.32 1 14.31 14.31 0 0 0 4.74.82z"/></g></g></g></g></svg>