<svg xmlns="http://www.w3.org/2000/svg" viewBox="0 0 22.81 17"><g data-name="图层 2"><g data-name="图层 1"><path d="M9.93 0a1.43 1.43 0 0 1 1.36 1.73L9.46 15.28A2 2 0 0 1 7.65 17H1.37A1.42 1.42 0 0 1 0 15.28L1.84 1.73A2 2 0 0 1 3.66 0" fill-rule="evenodd" fill="#ff5d54"/><path d="M16.55 0c.88 0 .54.77.42 1.73l-1.82 13.55c-.13 1 0 1.72-.88 1.72H7.05a1.41 1.41 0 0 1-1.35-1.72L7.52 1.73A2 2 0 0 1 9.34 0" fill="#3576b1" fill-rule="evenodd"/><path d="M21.44 0a1.43 1.43 0 0 1 1.36 1.73L21 15.28A2 2 0 0 1 19.15 17h-6.26a1.42 1.42 0 0 1-1.36-1.72l1.82-13.55A2 2 0 0 1 15.17 0z" fill="#34959c" fill-rule="evenodd"/><path d="M17.5 9.54h.71v.32c0 .06 0 .08.14.08h.16l-.15.53h-.43c-.37 0-.51-.14-.5-.34v-.3l-.08.27h-.25l-.77 2.76h.21l-.16.57h-.21v.17h-.73v-.17H14l.15-.53h.15l.7-2.8.16-.57h.74l-.08.29a1.28 1.28 0 0 1 .39-.21c.18 0 1.26-.07 1.26-.07zm-1.72.56l-.2.7.34-.14.31-.05.14-.51zm-.3 1.06l-.2.73a2.89 2.89 0 0 1 .35-.17 2.86 2.86 0 0 1 .31-.05l.14-.52h-.6zM15 12.87h.59l.18-.62h-.59zm2.51-.81h-.76l.13-.48h.87l.12-.43H17l.14-.53h2.37l-.15.53h-.76l-.13.43h.8l-.13.48h-.86l-.16.2h.35l.09.6a.35.35 0 0 0 0 .12h.29l-.16.58h-.46c-.08 0-.14-.06-.2-.09a.3.3 0 0 1-.14-.2l-.08-.59-.39.58a.65.65 0 0 1-.58.33h-.55l.15-.52h.21a.54.54 0 0 0 .15 0 .3.3 0 0 0 .12-.11zm-8.27-1.3h2l-.15.52h-.8l-.12.45H11l-.15.54H10l-.2.72c0 .07.19.09.27.09l.41-.06-.16.59h-.89a.89.89 0 0 1-.22 0 .33.33 0 0 1-.21-.38l.26-1h-.43l.17-.5h.46l.12-.45h-.47zm1.35-.93h.82l-.15.54h-1.11l-.13.12s-.07 0-.13.07a.74.74 0 0 1-.37.11h-.36l.14-.53h.11a.41.41 0 0 0 .19 0 .57.57 0 0 0 .12-.17l.2-.4h.82zm1.17-.29h.7l-.1.38a2.19 2.19 0 0 1 .37-.26 3.58 3.58 0 0 1 .5-.12h1.13L14 10.93a1.79 1.79 0 0 1-.19.47.49.49 0 0 1-.19.19.86.86 0 0 1-.26.1h-1.45l-.31 1.1v.19a.14.14 0 0 0 .11.06l.48-.05-.17.61h-1.15c-.06 0-.12-.11-.12-.18s0-.16.06-.29zM13.25 11H12.1l-.1.2h1.15zm-1.08-.23a1.22 1.22 0 0 1 .61-.29h.63l.08-.3h-1.15zm1.63 1.03l-.06.33a.45.45 0 0 1-.12.25.47.47 0 0 1-.38.15h-.39v.5c0 .02 0 0 0 0h.49l-.15.56h-.43a1.27 1.27 0 0 1-.59-.07c-.07 0-.08-.11-.08-.22v-1.48h.68v.3h.35a.28.28 0 0 0 .05-.08l.06-.24h.53zM5.55 4.37a7.59 7.59 0 0 0 .89 0c-.07.26-.55 2.34-.55 2.34v.22a1.85 1.85 0 0 1-.79 1.29 2.06 2.06 0 0 1-1.1.29c-.34 0-1-.06-1.16-.47a1 1 0 0 1-.1-.46L2.79 7v-.2l.46-2.25V4.4a5 5 0 0 0 1.06 0c-.08.26-.54 2.26-.54 2.26l-.08.6v.1a.45.45 0 0 0 .48.45.69.69 0 0 0 .47-.18 1.71 1.71 0 0 0 .39-1s.49-2.14.52-2.26zm3.22 1.28A.49.49 0 0 0 8.54 5h-.66v.11l-.26 1.23v.06h.14a1.35 1.35 0 0 0 .61-.1.89.89 0 0 0 .4-.65zm-.34-1.28c.53 0 1 0 1.23.36a.83.83 0 0 1 .12.47 1.53 1.53 0 0 1 0 .38 1.85 1.85 0 0 1-.61 1.06A2.35 2.35 0 0 1 7.58 7a.28.28 0 0 0-.08.08l-.12.55s-.14.74-.17.86h-.99l.61-2.75.24-1.24v-.15a9.09 9.09 0 0 0 1.07 0zm2.27 3.42c.18.34.78.19 1.13.12l-.21.79c-3.54.73-1.89-4.12.74-2.81l-.18.7a1 1 0 0 0-1.48 1.2zm2.85.3a.51.51 0 0 0 .37-.2 2.55 2.55 0 0 0 .25-.67c.11-.48 0-.77-.22-.77s-.43.4-.54.87a2.89 2.89 0 0 0-.08.47c0 .3.18.3.22.3zm1.94-2.31c-.1.39-.19.78-.28 1.17-.21.85-.21 1.27-.34 1.69h-1l.06-.23a1 1 0 0 1-.57.3 1.16 1.16 0 0 1-.53-.1c-.58-.25-.46-1-.37-1.33a2.18 2.18 0 0 1 .53-1.06 1.29 1.29 0 0 1 1.11-.43.66.66 0 0 1 .35.35v-.17zm5.06.52a.79.79 0 0 1 .13.52 3.35 3.35 0 0 1-.1.51l-.81 2.76a.7.7 0 0 1-.76.38h-.49l.14-.52H19a.13.13 0 0 0 .07-.06l.77-2.61a3.29 3.29 0 0 0 .08-.34.38.38 0 0 0-.06-.22.23.23 0 0 0-.19-.09.4.4 0 0 0-.31.12 1 1 0 0 0-.32.4 4.17 4.17 0 0 0-.2.64L18.51 9h-.72l1-3.89h.72l-.34 1.35a1.82 1.82 0 0 1 .41-.26.79.79 0 0 1 .4-.07.73.73 0 0 1 .57.17zm-3.43.34s-.3-.08-.36.11.24.31.29.33a1.43 1.43 0 0 1 .53.43C17.9 8.82 16.49 9 15.3 8.69l.16-.81L16 8c.62.12.88 0 .66-.26s-.45-.07-.73-.32c-.72-.77.49-2 2-1.34l-.17.72a5.1 5.1 0 0 1-.64-.16z" fill="#fefefe"/></g></g></svg>