<svg width="22" height="22" viewBox="0 0 22 22" xmlns="http://www.w3.org/2000/svg"><path d="M11 0c6.075 0 11 4.925 11 11s-4.925 11-11 11S0 17.075 0 11 4.925 0 11 0zm7.085 4.617c-.95 0-1.723.773-1.723 1.723a1.725 1.725 0 0 0 1.914 1.713c.385.946.59 1.983.574 3.07-.063 4.075-3.296 7.466-7.364 7.713a7.803 7.803 0 0 1-4.803-1.285.304.304 0 0 0-.389.048l-.37.396-.041.055a.308.308 0 0 0 .094.41A8.936 8.936 0 0 0 11 20c4.963 0 9-4.037 9-9a8.936 8.936 0 0 0-.69-3.449 1.72 1.72 0 0 0 .499-1.21c0-.95-.773-1.724-1.724-1.724zM11 2c-4.963 0-9 4.037-9 9 0 1.188.233 2.322.654 3.361a1.715 1.715 0 0 0-.463 1.17 1.725 1.725 0 0 0 2.263 1.637 1.73 1.73 0 0 0 1.184-1.636 1.725 1.725 0 0 0-1.96-1.705 7.813 7.813 0 0 1-.526-3.043c.11-4.079 3.393-7.433 7.469-7.626a7.813 7.813 0 0 1 4.833 1.38c.12.084.283.066.386-.037l.384-.385.043-.054a.308.308 0 0 0-.084-.414A8.945 8.945 0 0 0 11 2zM3.915 14.829a.704.704 0 0 1 .703.703l-.002.03a.703.703 0 0 1-1.404-.03l.001-.028a.704.704 0 0 1 .702-.675zm9.749-8.313c-1.09-.673-2.458-.952-3.715-.664l-.02.004-.038.008-.187.043a4.11 4.11 0 0 0-.34.102 4.971 4.971 0 0 0-1.87 1.202c-.973.979-1.467 2.169-1.467 3.537 0 1.37.494 2.56 1.468 3.533.974.975 2.163 1.469 3.533 1.469a4.87 4.87 0 0 0 1.948-.396 5.221 5.221 0 0 0 1.594-1.07l.164-.162.047-.058a.32.32 0 0 0-.045-.397l-1.583-1.583-.058-.046a.32.32 0 0 0-.396.046l-.162.162-.135.126c-.458.395-.997.552-1.649.486a1.905 1.905 0 0 1-1.013-.422c-.556-.457-.825-1.003-.825-1.682 0-.519.16-.963.487-1.352a2.16 2.16 0 0 1 1.716-.772c.545.02 1.01.225 1.416.628l.162.16.028.006c.267-.034 2.007-1.59 2.007-1.59a.32.32 0 0 0-.003-.457l-.166-.162-.21-.193a5.273 5.273 0 0 0-.688-.506zm4.421-.879a.704.704 0 0 1 0 1.406.703.703 0 0 1 0-1.406z" fill="#31E59F" fill-rule="evenodd"/></svg>