<svg xmlns="http://www.w3.org/2000/svg" viewBox="0 0 22 19" enable-background="new 0 0 22 19"><defs><filter id="a" filterUnits="userSpaceOnUse" x="1.5" y="0" width="19" height="19"><feColorMatrix values="1 0 0 0 0 0 1 0 0 0 0 0 1 0 0 0 0 0 1 0"/></filter></defs><mask maskUnits="userSpaceOnUse" x="1.5" y="0" width="19" height="19" id="b"><g filter="url(#a)"><path fill="#fff" d="M1.5 0h19v19h-19z"/></g></mask><path d="M19 6.7h-.3C18.3 2.9 15 0 10.9 0S3.5 2.9 3.2 6.7H3c-.8 0-1.5.6-1.5 1.3v5.3c0 .7.7 1.3 1.5 1.3h1.6c.8 0 1.5-.6 1.5-1.3V8c0-.7-.7-1.3-1.5-1.3H4C4.3 3.4 7.3.8 10.9.8c3.6 0 6.6 2.6 6.9 5.9h-.5c-.8 0-1.5.6-1.5 1.3v5.3c0 .6.5 1.2 1.2 1.3h.7c0 .4 0 1.3-.7 2-.5.6-1.4.9-2.5 1-.2-.3-.5-.4-.9-.4H12c-.6 0-1 .4-1 .9s.5.9 1 .9h1.6c.5 0 .9-.3 1-.7 1.3-.1 2.3-.6 3-1.3.8-.8.9-1.9.9-2.4h.5c.8 0 1.5-.6 1.5-1.3V8c0-.7-.7-1.3-1.5-1.3" mask="url(#b)" fill="#4292cd"/></svg>