<svg version="1.1" id="Layer_1" xmlns="http://www.w3.org/2000/svg" x="0" y="0" viewBox="0 0 22 19" xml:space="preserve" enable-background="new 0 0 22 19"><style>.st1{fill:#fff}</style><g id="Page-1"><g id="联系我们" transform="translate(-37 -437)"><g id="分组-7" transform="translate(37 437)"><g id="分组-6"><g id="分组" transform="translate(1 9)"><defs><filter id="Adobe_OpacityMaskFilter" filterUnits="userSpaceOnUse" x="1.5" y="2.2" width="17" height="5.6"><feColorMatrix values="1 0 0 0 0 0 1 0 0 0 0 0 1 0 0 0 0 0 1 0"/></filter></defs><mask maskUnits="userSpaceOnUse" x="1.5" y="2.2" width="17" height="5.6" id="mask-2_2_"><g filter="url(#Adobe_OpacityMaskFilter)"><path id="path-1_2_" class="st1" d="M1.5 2.2h17v5.6h-17z"/></g></mask><path id="Fill-1" d="M17.4 7.8c.4 0 .8-.1 1.1-.4l-5.1-5.2c-.1.1-.2.2-.4.3-.4.3-.7.5-.9.7-.2.2-.6.3-1 .5s-.8.3-1.1.3c-.3 0-.7-.1-1.1-.3-.4-.2-.7-.3-1-.5-.2-.2-.5-.4-.9-.7l-.3-.3-5.2 5.2c.3.3.7.4 1.1.4h14.8z" mask="url(#mask-2_2_)" fill="#07d0c2"/></g><g id="分组_1_" transform="translate(0 5)"><defs><filter id="Adobe_OpacityMaskFilter_1_" filterUnits="userSpaceOnUse" x="1.5" y="2.2" width="5" height="7.9"><feColorMatrix values="1 0 0 0 0 0 1 0 0 0 0 0 1 0 0 0 0 0 1 0"/></filter></defs><mask maskUnits="userSpaceOnUse" x="1.5" y="2.2" width="5" height="7.9" id="mask-4_2_"><g filter="url(#Adobe_OpacityMaskFilter_1_)"><path id="path-3_2_" class="st1" d="M1.5 2.2h5v8h-5z"/></g></mask><path id="Fill-3" d="M2.6 3.1c-.4-.3-.8-.6-1.1-.9v7.9l5-4.6c-1-.6-2.3-1.4-3.9-2.4" mask="url(#mask-4_2_)" fill="#07d0c2"/></g><g id="分组_2_"><defs><filter id="Adobe_OpacityMaskFilter_2_" filterUnits="userSpaceOnUse" x="1.5" y="2.2" width="19" height="9"><feColorMatrix values="1 0 0 0 0 0 1 0 0 0 0 0 1 0 0 0 0 0 1 0"/></filter></defs><mask maskUnits="userSpaceOnUse" x="1.5" y="2.2" width="19" height="9" id="mask-6_2_"><g filter="url(#Adobe_OpacityMaskFilter_2_)"><path id="path-5_2_" class="st1" d="M1.5 2.2h19v9h-19z"/></g></mask><path id="Fill-7" d="M18.8 2.2H3.2c-.5 0-1 .2-1.3.5-.3.4-.4.8-.4 1.3 0 .4.2.9.6 1.4.4.5.8.9 1.2 1.2.2.2 1 .6 2.2 1.4.7.4 1.2.8 1.7 1.1.4.3.8.5 1.1.7 0 0 .1.1.2.1 0 .1.1.1.2.2.2.2.4.3.6.4.2.1.3.2.6.3l.6.3c.2.1.4.1.5.1.2 0 .3 0 .5-.1l.6-.3.6-.3c.2-.1.3-.2.6-.4.1-.1.2-.1.3-.2.1 0 .1-.1.2-.1.2-.2.6-.4 1.1-.7.9-.6 2.2-1.4 3.9-2.6.5-.3.9-.8 1.3-1.2.3-.5.5-1 .5-1.5 0-.4-.2-.8-.5-1.1-.4-.4-.8-.5-1.3-.5" mask="url(#mask-6_2_)" fill="#07d0c2"/></g></g><path id="Fill-5" d="M15.5 10.6l5 4.6v-8c-.3.3-.7.6-1.1.9-1.5.9-2.8 1.8-3.9 2.5z" fill="#07d0c2"/></g></g></g></svg>