<svg width="20" height="18" viewBox="0 0 20 18" xmlns="http://www.w3.org/2000/svg"><g fill="none" fill-rule="evenodd"><path opacity=".224" d="M0-1h20v20H0z"/><path d="M2.003 6.625V2.52C1.957 1.44 2.4 1 3.526 1h4.103a.5.5 0 0 0 0-1H3.526C1.84 0 .933.905 1.004 2.541v4.084a.5.5 0 1 0 1 0zm16.059 4.748v4.106c.047 1.079-.395 1.52-1.522 1.52h-4.103a.5.5 0 0 0 0 1h4.103c1.686 0 2.593-.906 2.522-2.541v-4.085a.5.5 0 0 0-1 0zm.063-4.748V2.52C18.172 1.44 17.73 1 16.603 1H12.5a.5.5 0 1 1 0-1h4.103c1.686 0 2.593.905 2.522 2.541v4.084a.5.5 0 1 1-1 0zM1.94 11.373v4.106C1.894 16.558 2.336 17 3.463 17h4.103a.5.5 0 0 1 0 1H3.463C1.777 18 .87 17.094.941 15.459v-4.085a.5.5 0 0 1 1 0z" fill="#FFF" fill-rule="nonzero"/></g></svg>