<svg width="20" height="18" viewBox="0 0 20 18" xmlns="http://www.w3.org/2000/svg"><g fill="none" fill-rule="evenodd"><path opacity=".224" d="M0-1h20v20H0z"/><path d="M7.125.5v4.106c.047 1.078-.395 1.52-1.522 1.52H1.5a.5.5 0 0 0 0 1h4.103c1.686 0 2.593-.906 2.522-2.542V.5a.5.5 0 1 0-1 0zm5.815 16.999v-4.106c-.046-1.079.396-1.52 1.523-1.52h4.103a.5.5 0 0 0 0-1h-4.103c-1.686 0-2.593.905-2.522 2.541V17.5a.5.5 0 0 0 1 0zM13.003.5v4.106c-.046 1.078.396 1.52 1.523 1.52h4.103a.5.5 0 1 1 0 1h-4.103c-1.686 0-2.593-.906-2.522-2.542V.5a.5.5 0 1 1 1 0zM7.062 17.499v-4.106c.047-1.079-.395-1.52-1.522-1.52H1.437a.5.5 0 0 1 0-1H5.54c1.686 0 2.593.905 2.522 2.541V17.5a.5.5 0 0 1-1 0z" fill="#FFF" fill-rule="nonzero"/></g></svg>