<svg version="1.1" id="Layer_1" xmlns="http://www.w3.org/2000/svg" xmlns:xlink="http://www.w3.org/1999/xlink" x="0" y="0" viewBox="0 0 20 18" xml:space="preserve"><style>.st0{fill:#fff}</style><path class="st0" d="M14.8 17.7H5.3c-.3 0-.5-.2-.5-.5s.2-.5.5-.5h9.5c.8 0 1.4-.6 1.4-1.4V5.4c0-.3.2-.5.5-.5s.5.2.5.5v9.9c-.1 1.3-1.1 2.4-2.4 2.4zm-11-3.8c-.3 0-.5-.2-.5-.5V5.1c0-.3.2-.5.5-.5s.5.2.5.5v8.3c0 .3-.2.5-.5.5z"/><path class="st0" d="M18.1 6.3c-.1 0-.2 0-.3-.1L10 1.6 2.2 6.2c-.3.2-.6.1-.7-.1-.1-.3-.1-.6.2-.7L9.8.7c.2-.1.3-.1.5 0l8.1 4.7c.2.1.3.4.2.7-.2.1-.4.2-.5.2z"/><defs><ellipse id="SVGID_1_" cx="6.6" cy="10.5" rx=".9" ry=".9"/></defs><clipPath id="SVGID_2_"><use xlink:href="#SVGID_1_" overflow="visible"/></clipPath><g clip-path="url(#SVGID_2_)"><defs><path id="SVGID_3_" d="M1 .1h18v18H1z"/></defs><clipPath id="SVGID_4_"><use xlink:href="#SVGID_3_" overflow="visible"/></clipPath><path clip-path="url(#SVGID_4_)" fill="#fff" d="M1.2 5.1H12v10.8H1.2z"/></g><defs><ellipse id="SVGID_5_" cx="10.2" cy="10.5" rx=".9" ry=".9"/></defs><clipPath id="SVGID_6_"><use xlink:href="#SVGID_5_" overflow="visible"/></clipPath><g clip-path="url(#SVGID_6_)"><defs><path id="SVGID_7_" d="M1 .1h18v18H1z"/></defs><clipPath id="SVGID_8_"><use xlink:href="#SVGID_7_" overflow="visible"/></clipPath><path clip-path="url(#SVGID_8_)" fill="#fff" d="M4.8 5.1h10.8v10.8H4.8z"/></g><defs><ellipse id="SVGID_9_" cx="13.8" cy="10.5" rx=".9" ry=".9"/></defs><clipPath id="SVGID_10_"><use xlink:href="#SVGID_9_" overflow="visible"/></clipPath><g clip-path="url(#SVGID_10_)"><defs><path id="SVGID_11_" d="M1 .1h18v18H1z"/></defs><clipPath id="SVGID_12_"><use xlink:href="#SVGID_11_" overflow="visible"/></clipPath><path clip-path="url(#SVGID_12_)" fill="#fff" d="M8.4 5.1h10.8v10.8H8.4z"/></g></svg>