<svg version="1.1" id="Layer_1" xmlns="http://www.w3.org/2000/svg" x="0" y="0" viewBox="0 0 15 20" xml:space="preserve"><style>.st2{fill:none;stroke:#fff}</style><g id="Page-1"><g id="_x39_.-PC彩票_x2F_-购彩大厅_x2F_分享进去聊天室_x2F_大房_x2F_下拉" transform="translate(-1787 -100)"><g id="btn_VIP1" transform="translate(1723 93)"><g id="icn_系统房" transform="translate(61 7)"><path id="Rectangle" fill="none" d="M0 0h20v20H0z"/><path id="Path-10" fill="none" stroke="#fff" stroke-linecap="round" stroke-linejoin="round" d="M6.2 13.1v6.2l4.3-3.1 4.3 3.1v-6.2"/><path id="Path-11" class="st2" d="M9.9 1.2c.4-.2.8-.2 1.2 0s2.1 1.1 5.2 2.7c.5.1.7.4.7.9v6.6c-.1.4-.4.8-.7 1-.4.2-2.1 1.1-5.2 2.6-.5.1-.9.1-1.2 0-.3-.2-2-1.1-5.2-2.7-.5-.3-.7-.5-.7-1V4.7c.1-.4.3-.7.7-.9s2.1-1.1 5.2-2.6z"/><path id="Path-11_1_" class="st2" d="M10.1 3.1c.3-.2.6-.2.9 0 .3.2 1.5.8 3.6 1.9.2.2.4.4.4.7v4.7c-.1.3-.2.6-.5.7-.2.1-1.4.8-3.6 1.8-.4.1-.6.1-.9 0-.2-.1-1.4-.8-3.6-1.9-.2-.1-.4-.3-.4-.6V5.7c0-.3.2-.5.5-.7.2-.1 1.4-.8 3.6-1.9z"/></g></g></g></g></svg>