<svg version="1.1" id="Layer_1" xmlns="http://www.w3.org/2000/svg" x="0" y="0" viewBox="0 0 22 19" xml:space="preserve" enable-background="new 0 0 22 19"><style>.st1{fill:#fff}</style><g id="Page-1"><g id="联系我们" transform="translate(-38 -375)"><g id="分组-copy" transform="translate(38 375)"><g id="分组" transform="translate(0 2)"><defs><filter id="Adobe_OpacityMaskFilter" filterUnits="userSpaceOnUse" x="2.5" y="0" width="17" height="17"><feColorMatrix values="1 0 0 0 0 0 1 0 0 0 0 0 1 0 0 0 0 0 1 0"/></filter></defs><mask maskUnits="userSpaceOnUse" x="2.5" y="0" width="17" height="17" id="mask-2_2_"><g filter="url(#Adobe_OpacityMaskFilter)"><path id="path-1_2_" class="st1" d="M2.5 0h17v17h-17z"/></g></mask><path id="Fill-1" d="M16.8 10.6c-.6-.6-1.4-.6-2 0L13.4 12c-.1.1-.2.2-.4.1-.3-.2-.6-.3-.9-.5-1.3-.8-2.5-1.9-3.5-3.2-.5-.6-.9-1.3-1.2-2-.1-.1-.1-.2.1-.3.5-.4.9-.9 1.4-1.4.6-.6.6-1.4 0-2-.4-.4-.8-.7-1.2-1.1C7.4 1.2 7 .8 6.6.5c-.6-.6-1.4-.6-2 0L3.2 1.9c-.4.4-.6.9-.7 1.5-.1 1 .2 1.9.5 2.8.7 1.9 1.7 3.5 3 5 1.7 2 3.8 3.7 6.2 4.8 1.1.5 2.2.9 3.4 1 .8 0 1.6-.2 2.1-.8.4-.4.8-.9 1.3-1.3.6-.6.6-1.4 0-2-.7-.8-1.5-1.5-2.2-2.3" mask="url(#mask-2_2_)" fill="#6453cb"/></g><path id="Fill-3" d="M16 9l1.5-.2c-.2-1.2-.9-2.3-1.9-3.1-1.1-.9-2.4-1.5-3.9-1.6l-.2 1.3c1.1.1 2.2.6 3 1.3.8.5 1.3 1.4 1.5 2.3" fill="#6453cb"/><g id="分组_1_" transform="translate(10)"><defs><filter id="Adobe_OpacityMaskFilter_1_" filterUnits="userSpaceOnUse" x="2.5" y="0" width="9" height="9"><feColorMatrix values="1 0 0 0 0 0 1 0 0 0 0 0 1 0 0 0 0 0 1 0"/></filter></defs><mask maskUnits="userSpaceOnUse" x="2.5" y="0" width="9" height="9" id="mask-4_2_"><g filter="url(#Adobe_OpacityMaskFilter_1_)"><path id="path-3_2_" class="st1" d="M2.5 0h9v9h-9z"/></g></mask><path id="Fill-5" d="M2.7 0l-.2 1.5c2 .2 3.7 1.1 5.1 2.5 1.3 1.4 2.2 3.1 2.5 5l1.4-.2c-.4-2.2-1.4-4.2-2.9-5.8C7 1.4 5 .3 2.7 0z" mask="url(#mask-4_2_)" fill="#6453cb"/></g></g></g></g></svg>