<svg xmlns="http://www.w3.org/2000/svg" viewBox="0 0 22 19" enable-background="new 0 0 22 19"><defs><filter id="a" filterUnits="userSpaceOnUse" x="2.5" y="0" width="17" height="19"><feColorMatrix values="1 0 0 0 0 0 1 0 0 0 0 0 1 0 0 0 0 0 1 0"/></filter></defs><mask maskUnits="userSpaceOnUse" x="2.5" y="0" width="17" height="19" id="b"><g filter="url(#a)"><path fill="#fff" d="M2.5 0h17v19h-17z"/></g></mask><path d="M16.7 7.9c.2-.5.3-1.1.3-1.7C17 2.8 14.3 0 11 0S5 2.8 5 6.2c0 .6.1 1.2.2 1.7-.8.6-3.7 3.3-2.5 6.9 0 0 1-.1 1.9-1.7.3 1 .7 2 1.4 2.7-.9.3-1.6.8-1.6 1.5 0 .9 1.4 1.7 3 1.7 1.1 0 2.1-.3 2.7-.9.3 0 .6.1.9.1.3 0 .6 0 .9-.1.5.5 1.5.9 2.7.9 1.7 0 3-.8 3-1.7 0-.6-.6-1.2-1.6-1.5.6-.8 1.1-1.7 1.4-2.7.8 1.6 1.9 1.7 1.9 1.7 1.1-3.5-1.8-6.3-2.6-6.9" mask="url(#b)" fill="#ffc107"/></svg>