<svg width="16" height="16" viewBox="0 0 16 16" xmlns="http://www.w3.org/2000/svg" xmlns:xlink="http://www.w3.org/1999/xlink"><defs><path id="a" d="M.002.016h15.982V16H.002z"/></defs><g fill="none" fill-rule="evenodd"><mask id="b" fill="#fff"><use xlink:href="#a"/></mask><path class="Fill-1" d="M14.208 16H1.776C.799 16 0 15.2 0 14.224V1.792C0 .815.8.016 1.776.016h12.432c.977 0 1.776.799 1.776 1.776v12.432c0 .977-.799 1.776-1.776 1.776z" fill="rgba(0,0,0,0.65)" mask="url(#b)"/><path class="Fill-3" d="M4.396 9.34l.932-4.04h1.243l-1.598 5.594H3.818L2.22 5.299h1.243l.933 4.04zm3.197 1.554h1.11V5.299h-1.11v5.595zm3.596-1.954v1.954h-1.11V5.299h1.91c1.642 0 1.82 1.51 1.82 1.865 0 .533-.222 1.776-1.82 1.776h-.8zm0-.977h.755c.577 0 .666-.488.666-.843 0-.71-.4-.933-.666-.933h-.755v1.776z" fill="#FFF"/></g></svg>