<svg id="Layer_1" data-name="Layer 1" xmlns="http://www.w3.org/2000/svg" viewBox="0 0 22 19"><defs><style>.cls-2{fill:#4caf50}.cls-3{fill:#fafafa}</style><mask id="mask" x="8.23" y="6.63" width="13.72" height="12.37" maskUnits="userSpaceOnUse"><g id="mask-2"><path id="path-1" fill="#fff" d="M8.23 6.63h13.72V19H8.23V6.63z"/></g></mask></defs><g id="Page-1"><g id="联系我们"><g id="Wechat"><g id="Stacked-Group"><g id="wechat-2" data-name="wechat"><g id="分组"><path id="Fill-1" class="cls-2" d="M15.7 5.07A7.9 7.9 0 0 0 8 0C3.61 0 0 3.19 0 7.12a6.77 6.77 0 0 0 2.82 5.41l-.94 2a.47.47 0 0 0 .2.64.43.43 0 0 0 .44 0L5 13.68a9 9 0 0 0 2 .49.47.47 0 0 0 .51-.42.42.42 0 0 0 0-.16 6.57 6.57 0 0 1-.15-1.25c0-3.67 3.49-6.65 7.78-6.65h.14a.46.46 0 0 0 .38-.2.5.5 0 0 0 .06-.43"/><path id="Fill-3" class="cls-3" d="M5 2.86a1.41 1.41 0 0 0-1.37 1.43A1.41 1.41 0 0 0 5 5.72a1.41 1.41 0 0 0 1.39-1.43A1.41 1.41 0 0 0 5 2.86"/><path id="Fill-5" class="cls-3" d="M10.52 2.86a1.4 1.4 0 0 0-1.37 1.43 1.38 1.38 0 1 0 2.75 0 1.4 1.4 0 0 0-1.38-1.43"/><g mask="url(#mask)"><path id="Fill-7" class="cls-2" d="M22 12.34c0-3.15-3.08-5.71-6.86-5.71s-6.91 2.56-6.91 5.71 3.07 5.71 6.86 5.71a8.3 8.3 0 0 0 2.1-.28L19.46 19a.44.44 0 0 0 .61-.21.48.48 0 0 0 0-.39l-.62-1.62A5.44 5.44 0 0 0 22 12.34"/></g><path id="Fill-9" class="cls-3" d="M12.82 9.46a1 1 0 1 0 .92 1 .95.95 0 0 0-.92-1"/><path id="Fill-11" class="cls-3" d="M17.42 9.46a1 1 0 1 0 .92 1 .94.94 0 0 0-.92-1"/></g></g></g></g></g></g></svg>