<?xml version="1.0" encoding="utf-8"?>
<!-- Generator: Adobe Illustrator 22.1.0, SVG Export Plug-In . SVG Version: 6.00 Build 0)  -->
<svg version="1.1" id="Layer_1" xmlns="http://www.w3.org/2000/svg" xmlns:xlink="http://www.w3.org/1999/xlink" x="0px" y="0px"
	 viewBox="0 0 19 19" style="enable-background:new 0 0 19 19;" xml:space="preserve">
<style type="text/css">
	.st0{fill:#1676FA;stroke:#1676FA;stroke-width:0.2;}
	.st1{fill:#D8D8D8;fill-opacity:0;}
</style>
<title>icon_账户明细</title>
<desc>Created with Sketch.</desc>
<g id="icon_账户明细">
	<g>
		<path class="st0" d="M4,3.2l0.7,0.7l1.2-1.2C5.5,2.3,5.1,2.1,4.6,2.1c-1,0-1.8,0.8-1.8,1.8s0.8,1.8,1.8,1.8c0.8,0,1.5-0.5,1.7-1.3
			c0.1-0.2,0.3-0.4,0.5-0.3C7,4.2,7.2,4.5,7.1,4.7C6.7,5.8,5.8,6.6,4.6,6.6C3.2,6.6,2,5.4,2,3.9s1.2-2.7,2.6-2.7
			c0.7,0,1.4,0.3,1.9,0.8l0.9-0.9C7.5,1,7.8,1,8,1.1c0.2,0.2,0.2,0.4,0,0.6l-3,3.1C4.9,4.9,4.8,4.9,4.7,4.9c-0.1,0-0.2,0-0.3-0.1
			l-1-1c-0.2-0.2-0.2-0.4,0-0.6C3.5,3,3.8,3,4,3.2z M4.6,6.9c1.4,0,2.6,1.2,2.6,2.7S6,12.3,4.6,12.3S2,11.1,2,9.6S3.2,6.9,4.6,6.9z
			 M4.6,11.4c1,0,1.8-0.8,1.8-1.8S5.6,7.8,4.6,7.8S2.8,8.6,2.8,9.6S3.6,11.4,4.6,11.4z M7.2,15.3C7.2,16.8,6,18,4.6,18
			S2,16.8,2,15.3s1.2-2.7,2.6-2.7S7.2,13.9,7.2,15.3z M4.6,17.1c1,0,1.8-0.8,1.8-1.8s-0.8-1.8-1.8-1.8s-1.8,0.8-1.8,1.8
			S3.6,17.1,4.6,17.1z M16.6,9.2c0.2,0,0.4,0.2,0.4,0.4S16.8,10,16.6,10H8.5c-0.2,0-0.4-0.2-0.4-0.4s0.2-0.4,0.4-0.4H16.6z
			 M16.6,3.5c0.2,0,0.4,0.2,0.4,0.4c0,0.2-0.2,0.4-0.4,0.4H8.5c-0.2,0-0.4-0.2-0.4-0.4c0-0.2,0.2-0.4,0.4-0.4H16.6z M16.6,14.9
			c0.2,0,0.4,0.2,0.4,0.4c0,0.2-0.2,0.4-0.4,0.4H8.5c-0.2,0-0.4-0.2-0.4-0.4s0.2-0.4,0.4-0.4H16.6z"/>
		<rect id="Mask" class="st1" width="19" height="19"/>
	</g>
</g>
</svg>
