<?xml version="1.0" encoding="utf-8"?>
<!-- Generator: Adobe Illustrator 22.1.0, SVG Export Plug-In . SVG Version: 6.00 Build 0)  -->
<svg version="1.1" id="Layer_1" xmlns="http://www.w3.org/2000/svg" xmlns:xlink="http://www.w3.org/1999/xlink" x="0px" y="0px"
	 viewBox="0 0 19 19" style="enable-background:new 0 0 19 19;" xml:space="preserve">
<style type="text/css">
	.st0{fill:#1676FA;}
</style>
<title>icon_投注记录</title>
<desc>Created with Sketch.</desc>
<g id="icon_投注记录">
	<g>
		<path class="st0" d="M9,6L7.3,7.7C6.7,8.3,6.1,8.9,5.5,9.5C5.4,9.7,5.3,9.9,5.2,10c-0.2,1-0.4,2-0.6,3l-0.1,0.6
			c-0.1,0.3,0,0.5,0.2,0.7c0.1,0.1,0.3,0.2,0.5,0.2c0.1,0,0.1,0,0.2,0L6,14.4c1-0.2,1.9-0.4,2.9-0.6c0.2,0,0.4-0.1,0.6-0.3
			c2.7-2.7,5.5-5.5,8.2-8.2C17.9,5.1,18,4.9,18,4.6c0,0,0-0.1,0-0.1c0-0.1,0-0.1,0-0.2c0-0.2-0.1-0.4-0.2-0.6l0,0
			c-0.5-1.2-1.4-2-2.5-2.5C15,1.1,14.8,1,14.6,1l-0.1,0c-0.3,0-0.6,0.1-0.8,0.3C12.1,2.9,10.5,4.5,9,6z M14.4,1.8L14.4,1.8L14.4,1.8
			c0.3,0,0.4,0,0.6,0.1C15.9,2.3,16.6,3,17,4c0,0.1,0.1,0.3,0.1,0.4c0,0.1,0,0.1,0,0.2c0,0.1,0,0.1-0.1,0.1
			c-2.7,2.7-5.5,5.5-8.2,8.2c0,0-0.1,0.1-0.1,0.1c-1,0.2-1.9,0.4-2.9,0.6l-0.5,0.1l0.1-0.5c0.2-1,0.4-2,0.6-3c0,0,0-0.1,0.1-0.1
			c0.6-0.6,1.2-1.2,1.8-1.8l1.6-1.6c1.6-1.6,3.1-3.1,4.7-4.7C14.3,1.9,14.4,1.8,14.4,1.8z M2.3,4.8C2.1,4.8,1.8,5,1.8,5.3v11.4
			c0,0.3,0.2,0.5,0.5,0.5h11.3c0.3,0,0.5-0.2,0.5-0.5v-5.8c0-0.2,0.2-0.4,0.4-0.4s0.4,0.2,0.4,0.4v5.8c0,0.7-0.6,1.4-1.3,1.4H2.3
			C1.6,18,1,17.4,1,16.6V5.3c0-0.7,0.6-1.4,1.3-1.4h6.1c0.2,0,0.4,0.2,0.4,0.4c0,0.2-0.2,0.4-0.4,0.4H2.3z"/>
	</g>
</g>
</svg>
