<?xml version="1.0" encoding="utf-8"?>
<!-- Generator: Adobe Illustrator 22.1.0, SVG Export Plug-In . SVG Version: 6.00 Build 0)  -->
<svg version="1.1" id="Layer_1" xmlns="http://www.w3.org/2000/svg" xmlns:xlink="http://www.w3.org/1999/xlink" x="0px" y="0px"
	 viewBox="0 0 19 19" style="enable-background:new 0 0 19 19;" xml:space="preserve">
<style type="text/css">
	.st0{fill:none;stroke:#1676FA;stroke-linecap:round;stroke-linejoin:round;}
</style>
<title>icon_提款/可按</title>
<desc>Created with Sketch.</desc>
<g id="icon_x5F_提款_x2F_可按">
	<g id="icon_提款">
		<path class="st0" d="M9.2,9.2l0,1.6H6.8c0,0,0,0,0,0v0c0,0,0,0,0,0h2.4l0,1.5h-2c0,0,0,0,0,0c0,0,0,0,0,0h2l0,0.5l0,1.5
			c0,0,0,0,0,0c0,0,0,0,0,0l0-2h2c0,0,0,0,0,0c0,0,0,0,0,0h-2l0-1.5h2.6c0,0,0,0,0,0v0c0,0,0,0,0,0H9.3L9.2,9.2l0.2-0.1l3-3.4
			c0,0,0,0,0,0c0,0,0,0,0,0L9.2,9.2L8.9,8.8L6.2,5.6c0,0,0,0,0,0c0,0,0,0,0,0L9.2,9.2z M17.5,9.5c0-2.1-0.8-4.2-2.3-5.7
			c-1.5-1.5-3.5-2.3-5.7-2.3c-2.1,0-4.2,0.8-5.7,2.3C2.3,5.3,1.5,7.4,1.5,9.5c0,2.1,0.8,4.2,2.3,5.7c1.5,1.5,3.5,2.3,5.7,2.3
			c2.1,0,4.2-0.8,5.7-2.3C16.7,13.7,17.5,11.6,17.5,9.5z M9.5,1.5c2.1,0,4.2,0.8,5.7,2.3c1.5,1.5,2.3,3.5,2.3,5.7
			c0,2.1-0.8,4.2-2.3,5.7c-1.5,1.5-3.5,2.3-5.7,2.3c-2.1,0-4.2-0.8-5.7-2.3c-1.5-1.5-2.3-3.5-2.3-5.7c0-2.1,0.8-4.2,2.3-5.7
			C5.3,2.3,7.4,1.5,9.5,1.5z"/>
	</g>
</g>
</svg>
