<?xml version="1.0" encoding="utf-8"?>
<!-- Generator: Adobe Illustrator 22.1.0, SVG Export Plug-In . SVG Version: 6.00 Build 0)  -->
<svg version="1.1" id="Layer_1" xmlns="http://www.w3.org/2000/svg" xmlns:xlink="http://www.w3.org/1999/xlink" x="0px" y="0px"
	 viewBox="0 0 17 17" style="enable-background:new 0 0 17 17;" xml:space="preserve">
<style type="text/css">
	.st0{fill:#1676FA;}
</style>
<title>icon_换一注</title>
<desc>Created with Sketch.</desc>
<g id="icon_换一注">
	<path class="st0" d="M2.7,4.2C2.7,4.2,2.7,4.2,2.7,4.2V2.8c0-0.3,0.2-0.5,0.5-0.5s0.5,0.2,0.5,0.5v0.2C6,0.9,9.4,0.4,12.2,1.8
		c3,1.5,4.7,4.7,4.4,8.1c0,0.3-0.3,0.5-0.6,0.4c-0.3,0-0.5-0.3-0.4-0.6c0.3-3-1.2-5.8-3.8-7.1C9.2,1.4,6.1,1.9,4.1,3.9h0.3
		c0.3,0,0.5,0.2,0.5,0.5c0,0.3-0.2,0.5-0.5,0.5H3.2c-0.3,0-0.5-0.2-0.5-0.5V4.2z M14.9,13.4C14.9,13.4,14.9,13.4,14.9,13.4v1.4
		c0,0.3-0.2,0.5-0.5,0.5s-0.5-0.2-0.5-0.5v-0.2c-2.3,2.1-5.7,2.5-8.5,1.1c-3-1.5-4.7-4.7-4.4-8.1c0-0.3,0.3-0.5,0.6-0.4
		S2.1,7.5,2,7.8c-0.3,3,1.2,5.8,3.8,7.1c2.6,1.3,5.6,0.8,7.7-1.2h-0.8c-0.3,0-0.5-0.2-0.5-0.5s0.2-0.5,0.5-0.5h1.7
		c0.3,0,0.5,0.2,0.5,0.5V13.4z"/>
</g>
</svg>
