<?xml version="1.0" encoding="utf-8"?>
<!-- Generator: Adobe Illustrator 22.1.0, SVG Export Plug-In . SVG Version: 6.00 Build 0)  -->
<svg version="1.1" id="Layer_1" xmlns="http://www.w3.org/2000/svg" xmlns:xlink="http://www.w3.org/1999/xlink" x="0px" y="0px"
	 viewBox="0 0 20 19" style="enable-background:new 0 0 20 19;" xml:space="preserve">
<style type="text/css">
	.st0{fill:#FEAB59;stroke:#FEAB59;stroke-width:0.1;}
</style>
<title>clickable_全清</title>
<desc>Created with Sketch.</desc>
<g id="clickable_全清">
	<path class="st0" d="M15.6,16.4c0,0.7-0.5,1.2-1.2,1.2H5.6c-0.7,0-1.2-0.5-1.2-1.2V3.8h11.2V16.4z M6.8,1.7c0-0.1,0.1-0.2,0.3-0.2
		h5.9c0.1,0,0.3,0.1,0.3,0.2v0.7H6.8V1.7z M19.3,2.4h-4.6V1.7c0-0.9-0.8-1.7-1.7-1.7H7.1C6.1,0,5.4,0.7,5.4,1.7v0.7H0.7
		C0.3,2.4,0,2.7,0,3.1s0.3,0.7,0.7,0.7h2.2v12.6c0,1.4,1.2,2.6,2.7,2.6h8.8c1.5,0,2.7-1.2,2.7-2.6V3.8h2.2c0.4,0,0.7-0.3,0.7-0.7
		S19.7,2.4,19.3,2.4L19.3,2.4z M10,15.4c0.4,0,0.7-0.3,0.7-0.7V7.1c0-0.4-0.3-0.7-0.7-0.7S9.3,6.7,9.3,7.1v7.6
		C9.3,15.1,9.6,15.4,10,15.4L10,15.4z M6.6,15.4c0.4,0,0.7-0.3,0.7-0.7V7.1c0-0.4-0.3-0.7-0.7-0.7c-0.4,0-0.7,0.3-0.7,0.7v7.6
		C5.9,15.1,6.2,15.4,6.6,15.4L6.6,15.4z M13.4,15.4c0.4,0,0.7-0.3,0.7-0.7V7.1c0-0.4-0.3-0.7-0.7-0.7c-0.4,0-0.7,0.3-0.7,0.7v7.6
		C12.7,15.1,13,15.4,13.4,15.4L13.4,15.4z"/>
</g>
</svg>
