<svg xmlns="http://www.w3.org/2000/svg" viewBox="0 0 22 22"><path d="M20.3 7.8H20C19.5 3.4 15.7 0 11 0S2.3 3.4 2 7.8h-.3C.8 7.8 0 8.5 0 9.3v6.1c0 .8.8 1.5 1.7 1.5h1.9c.9 0 1.7-.7 1.7-1.5V9.3c0-.8-.8-1.5-1.7-1.5h-.7C3.2 4 6.7 1 10.9 1s7.6 3 8 6.8h-.6c-.9 0-1.7.7-1.7 1.5v6.1c0 .7.6 1.4 1.4 1.5h.8c0 .5 0 1.5-.8 2.3-.6.7-1.6 1-2.9 1.2-.2-.3-.6-.5-1-.5h-1.9c-.7 0-1.2.5-1.2 1s.6 1 1.2 1H14c.6 0 1-.3 1.2-.8 1.5-.1 2.7-.7 3.5-1.5.9-.9 1-2.2 1-2.8h.6c.9 0 1.7-.7 1.7-1.5v-6c0-.8-.8-1.5-1.7-1.5" fill="#1676fa"/></svg>