<svg xmlns="http://www.w3.org/2000/svg" viewBox="0 0 21 21"><path d="M20.9 16.4c.5 3.4-.8 4.3-1.7 4.5-.2 0-.3.1-.5.1-1.4 0-2.5-.8-3.7-1.7-1.3-1-2.7-2-4.4-2-.4 0-.9 0-1.3.1-1.2.3-2.1 1-2.9 1.8-.8.7-1.6 1.5-2.8 1.7-.4.1-.7.1-1.1.1-.7 0-1.4-.3-1.8-.9-.4-.6-.6-1.2-.7-1.9-.1-1 0-2.1.2-3.2.2-1.2.6-2.3 1.1-3.4.7-1.5 2.1-4.2 4.6-4.8.3-.1.6-.1.9-.1.1 0 .2 0 .3.1 2.2.9 3.6 1.1 5.1.7.6-.2 1.2-.5 1.8-.7.1-.1.2-.1.3-.1.8 0 1.7.4 2.5 1.1.8.7 1.4 1.5 1.9 2.4.6 1 1 2 1.4 3.1.4 1 .6 2 .8 3.1zM3.4 12.1c0 1.3 1.1 2.4 2.5 2.4s2.5-1.1 2.5-2.4c0-1.3-1.1-2.4-2.5-2.4s-2.5 1.1-2.5 2.4zm9.1.3c.5.1 1-.1 1.2-.6.2-.5-.1-1-.6-1.2-.2-.1-.5-.1-.7 0-.2.1-.4.3-.5.5-.2.6.1 1.2.6 1.3zm2.4 1.4c.2-.4-.2-1-.6-1.2-.2-.1-.5-.1-.7 0s-.5.4-.6.6c-.2.5.1 1 .6 1.2.2.1.5.1.7 0 .3-.2.5-.4.6-.6zm.1-2.2c.5.1 1-.1 1.2-.6.2-.5-.1-1-.6-1.2-.2-.1-.5-.1-.7 0-.2.1-.4.3-.5.5-.2.6.1 1.2.6 1.3zm2.4 1.5c.2-.5-.1-1-.6-1.2-.2-.1-.5-.1-.7 0-.2.1-.4.3-.5.5-.2.5.1 1 .6 1.2.2.1.5.1.7 0 .3 0 .5-.2.5-.5zm-8-6.4c-.2 0-.4 0-.4-.1l-.4-1c-.3-.8.5-1.7 1.8-2.2.9-.3 1.4-1 1.2-1.5L11.1.5c0-.1.1-.3.3-.4s.4 0 .4.1l.5 1.4c.3.8-.5 1.7-1.8 2.2-.4.1-.7.4-1 .7-.2.2-.2.5-.2.8l.4 1c0 .1-.1.3-.3.4z" fill="#1676fa"/></svg>