<?xml version="1.0" encoding="utf-8"?>
<!-- Generator: Adobe Illustrator 22.1.0, SVG Export Plug-In . SVG Version: 6.00 Build 0)  -->
<svg version="1.1" id="Layer_1" xmlns="http://www.w3.org/2000/svg" xmlns:xlink="http://www.w3.org/1999/xlink" x="0px" y="0px"
	 viewBox="0 0 17 17" style="enable-background:new 0 0 17 17;" xml:space="preserve">
<style type="text/css">
	.st0{fill:none;stroke:#1676FA;stroke-width: 1;}
</style>
<title>icon_手动选号</title>
<desc>Created with Sketch.</desc>
<g id="icon_手动选号">
	<g>
		<path id="Path" class="st0" d="M8,15.5h4.5c0.4,0,1-0.3,1.3-0.6c0,0,0.1-0.1,0.3-0.3c0.2-0.3,0.4-0.6,0.7-1
			c0.4-0.6,0.7-1.8,0.7-2.5V8.9c0-0.6-0.2-1.1-0.6-1.4c-0.2-0.2-0.4-0.3-0.5-0.3L7.5,6.3v-4c0-0.4-0.4-0.8-1-0.8c-0.6,0-1,0.4-1,0.8
			v2.2c0,0.5,0,0.5,0,1c0,1.3,0,1.3,0,2.5c0,1.3,0,1.3,0,1.7v1.7L3.4,8.1C3.1,7.7,2.5,7.5,2,7.8C1.5,8,1.4,8.5,1.6,8.9l3.6,5.2
			C5.8,14.8,7.1,15.5,8,15.5z"/>
	</g>
</g>
</svg>
