<svg xmlns="http://www.w3.org/2000/svg" viewBox="0 0 20 22"><path d="M6.3 16.4c0-.1-.2-.4-.3-.7-.3-.1-.6-.3-.8-.6l-.4-.8C3.6 12.2 3 10.5 3 9.4 3 6.4 5.9 4 9.5 4S16 6.4 16 9.4c0 1.1-.6 2.8-1.7 4.9l-.2.3c-.2.3-.4.7-.4.8-.1.2-.3.3-.5.3s-.8.2-1.2.3l-5.4 1.6c-.5.1-1 0-1.1-.3-.1-.3.1-.7.6-.9h.2zm6.7 3.7L6.6 22c-.5.1-1 0-1.1-.3-.1-.3.1-.7.6-.9l6.4-1.9c.5-.1 1 0 1.1.3.2.3-.1.7-.6.9zm0-2.2l-6.4 1.9c-.5.1-1 0-1.1-.3-.1-.3.1-.7.6-.9l6.4-1.9c.5-.1 1 0 1.1.3.2.3-.1.7-.6.9zm2-14.7L16.2 2l.8.8L15.8 4l-.8-.8zM10 2V0h1v2h-1zM4.2 4L3 2.8l.8-.8L5 3.2l-.8.8zM18 9h2v1h-2V9zM0 9h2v1H0V9zm7.3-.4c.2-.2.3-.6.1-.8-.1-.3-.5-.4-.7-.2-1 .8-1.4 2.2-1 3.5.1.3.3.4.5.4h.2c.3-.1.5-.4.4-.8-.5-1.3.4-2 .5-2.1z" fill="#1676fa"/></svg>