<?xml version="1.0" encoding="utf-8"?>
<!-- Generator: Adobe Illustrator 22.1.0, SVG Export Plug-In . SVG Version: 6.00 Build 0)  -->
<svg version="1.1" id="Layer_1" xmlns="http://www.w3.org/2000/svg" xmlns:xlink="http://www.w3.org/1999/xlink" x="0px" y="0px"
	 viewBox="0 0 20 20" style="enable-background:new 0 0 20 20;" xml:space="preserve">
<style type="text/css">
	.st0{fill:#1676FA;}
</style>
<title>icon/历史开奖</title>
<desc>Created with Sketch.</desc>
<g>
	<path class="st0" d="M15.7,4.3C14.2,2.8,12.1,2,10,2C7.4,2,5,3.2,3.5,5.3V4c0-0.4-0.3-0.7-0.7-0.7C2.3,3.3,2,3.6,2,4v3
		c0,0.4,0.3,0.8,0.8,0.8H6c0.4,0,0.8-0.3,0.8-0.8c0-0.4-0.3-0.8-0.8-0.8H4.7C6.3,3.9,9.3,3,12,3.8s4.5,3.4,4.5,6.2
		c0,1.7-0.7,3.4-1.9,4.6c-1.2,1.2-2.9,1.9-4.6,1.9c-3,0-5.6-2.1-6.3-4.9c-0.1-0.3-0.4-0.5-0.7-0.5c-0.2,0-0.4,0.1-0.5,0.2
		c-0.2,0.2-0.3,0.4-0.3,0.6c0,0.1,0,0.1,0,0.2c0,0,0,0,0,0.1c1,3.4,4,5.8,7.7,5.8c2.1,0,4.2-0.8,5.7-2.3c1.6-1.5,2.4-3.6,2.4-5.7
		S17.2,5.8,15.7,4.3z"/>
	<path class="st0" d="M10,5.4c-0.2,0-0.4,0.1-0.5,0.2C9.3,5.7,9.3,5.9,9.3,6.1v4.5c0,0.4,0.3,0.8,0.7,0.8h3.3c0.4,0,0.7-0.4,0.7-0.8
		c0-0.4-0.3-0.7-0.7-0.8h-2.5V6.1C10.7,5.7,10.4,5.4,10,5.4z"/>
</g>
</svg>
