<?xml version="1.0" encoding="utf-8"?>
<!-- Generator: Adobe Illustrator 22.1.0, SVG Export Plug-In . SVG Version: 6.00 Build 0)  -->
<svg version="1.1" id="Layer_1" xmlns="http://www.w3.org/2000/svg" xmlns:xlink="http://www.w3.org/1999/xlink" x="0px" y="0px"
	 viewBox="0 0 19 19" style="enable-background:new 0 0 19 19;" xml:space="preserve">
<style type="text/css">
	.st0{fill:#FEAB59;stroke:#FEAB59;stroke-width:0.5;}
</style>
<title>icon_安全登出</title>
<desc>Created with Sketch.</desc>
<g id="icon_安全登出">
	<g>
		<path class="st0" d="M1,4.5C1,3.1,2,2,3.1,2H10c1.2,0,2.1,1.1,2.1,2.5v1.6c0,0.3-0.2,0.5-0.4,0.5c-0.2,0-0.4-0.2-0.4-0.5V4.5
			C11.2,3.7,10.7,3,10,3H3.1C2.4,3,1.8,3.7,1.8,4.5v10c0,0.8,0.6,1.5,1.3,1.5H10c0.7,0,1.3-0.7,1.3-1.5v-1.6c0-0.3,0.2-0.5,0.4-0.5
			c0.2,0,0.4,0.2,0.4,0.5v1.6c0,1.4-1,2.5-2.1,2.5H3.1C2,17,1,15.9,1,14.5V4.5z M14.5,13.3c-0.2-0.2-0.2-0.5,0-0.7l2.1-2.6H8.8
			c-0.2,0-0.4-0.2-0.4-0.5S8.6,9,8.8,9h7.8l-2.1-2.6c-0.2-0.2-0.2-0.5,0-0.7c0.2-0.2,0.4-0.2,0.6,0l2.8,3.5c0.2,0.2,0.2,0.5,0,0.7
			L15,13.3c-0.1,0.1-0.2,0.1-0.3,0.1C14.6,13.5,14.5,13.4,14.5,13.3z"/>
	</g>
</g>
</svg>
