<?xml version="1.0" encoding="utf-8"?>
<!-- Generator: Adobe Illustrator 22.1.0, SVG Export Plug-In . SVG Version: 6.00 Build 0)  -->
<svg version="1.1" id="Layer_1" xmlns="http://www.w3.org/2000/svg" xmlns:xlink="http://www.w3.org/1999/xlink" x="0px" y="0px"
	 viewBox="0 0 18 18" style="enable-background:new 0 0 18 18;" xml:space="preserve">
<style type="text/css">
	.st0{fill:#AAADB9;}
	.st1{filter:url(#Adobe_OpacityMaskFilter);}
	.st2{fill:#FFFFFF;}
	.st3{mask:url(#mask-2_1_);fill:#AAADB9;}
</style>
<title>Group 8</title>
<desc>Created with Sketch.</desc>
<g id="Page-1">
	<g id="Group-8">
		<path id="Fill-1" class="st0" d="M15.3,14.5c0.5,0,0.9,0.4,0.9,0.9c0,0.5-0.4,0.9-0.9,0.9s-0.9-0.4-0.9-0.9
			C14.4,14.9,14.8,14.5,15.3,14.5L15.3,14.5z M11.8,10.5L12,11l-0.5,0.5L11,11.9c-0.3,0.3-0.6,0.5-1,0.6l3.2,3.1l1.5,2l0.8,0.2
			l2.2-2.2l-0.2-0.8l-2-1.4l-3-2.9l-0.3,0.3L11.8,10.5z"/>
		<path id="Fill-3" class="st0" d="M6.5,6.6L7,6.1l0.5,0.2L7.2,5.8l0.5-0.5l0.1-0.1C7.9,5,8,4.7,8,4.5c0-2.1-2-4.1-4.1-4
			c0,0-0.2,0.2-0.4,0.4C5.1,2.4,5,2.2,5,3.2C5,4,3.7,5.3,2.8,5.3c-1.1,0-0.7,0.2-2.5-1.5C0.2,3.9,0,4.1,0,4.2c0,2.1,2,4,4.1,4
			c0.4,0,0.8-0.1,1.2-0.3L5.4,8C5.5,7.6,5.7,7.3,6,7L6.5,6.6z"/>
		<g id="Group-7" transform="translate(0.000000, 0.161257)">
			<g id="Clip-6">
			</g>
			<defs>
				<filter id="Adobe_OpacityMaskFilter" filterUnits="userSpaceOnUse" x="0" y="0.2" width="17.8" height="17.4">
					<feColorMatrix  type="matrix" values="1 0 0 0 0  0 1 0 0 0  0 0 1 0 0  0 0 0 1 0"/>
				</filter>
			</defs>
			<mask maskUnits="userSpaceOnUse" x="0" y="0.2" width="17.8" height="17.4" id="mask-2_1_">
				<g class="st1">
					<polygon id="path-1_1_" class="st2" points="0,0.2 17.8,0.2 17.8,17.6 0,17.6 					"/>
				</g>
			</mask>
			<path id="Fill-5" class="st3" d="M17.3,1.9l-1.2-1.2c-0.3-0.3-0.8-0.5-1.2-0.5c-0.4,0-0.9,0.2-1.2,0.5L8.4,5.9
				c0.2,0.3,0,0.8-0.2,1C8.1,7.1,7.8,7.2,7.5,7.2c-0.1,0-0.2,0-0.3-0.1L6.7,7.5c-0.7,0.6-0.7,1.7,0,2.3l0.1,0.1l-4.1,4l-1.1,0.4
				L0,16.6l1,1L3.3,16L3.7,15l4.1-4L8,11.1c0.3,0.3,0.8,0.5,1.2,0.5c0.4,0,0.9-0.2,1.2-0.5l0.5-0.5c-0.2-0.3,0-0.8,0.2-1
				c0.2-0.2,0.4-0.3,0.7-0.3c0.1,0,0.2,0,0.3,0.1l5.3-5.2C18,3.6,18,2.6,17.3,1.9"/>
		</g>
	</g>
</g>
</svg>
