<?xml version="1.0" encoding="utf-8"?>
<!-- Generator: Adobe Illustrator 22.1.0, SVG Export Plug-In . SVG Version: 6.00 Build 0)  -->
<svg version="1.1" id="Layer_1" xmlns="http://www.w3.org/2000/svg" xmlns:xlink="http://www.w3.org/1999/xlink" x="0px" y="0px"
	 viewBox="0 0 19 19" style="enable-background:new 0 0 19 19;" xml:space="preserve">
<style type="text/css">
	.st0{fill:#1676FA;}
</style>
<title>icon_我的消息</title>
<desc>Created with Sketch.</desc>
<g id="icon_我的消息">
	<g>
		<path class="st0" d="M4.7,9.5c-0.5,0-0.9-0.4-0.9-0.9c0-0.5,0.4-0.9,0.9-0.9s0.9,0.4,0.9,0.9C5.7,9.1,5.3,9.5,4.7,9.5z M8.5,9.5
			C8,9.5,7.6,9.1,7.6,8.6c0-0.5,0.4-0.9,0.9-0.9s0.9,0.4,0.9,0.9C9.5,9.1,9,9.5,8.5,9.5z M12.3,9.5c-0.5,0-0.9-0.4-0.9-0.9
			c0-0.5,0.4-0.9,0.9-0.9s0.9,0.4,0.9,0.9C13.3,9.1,12.8,9.5,12.3,9.5z M15.7,2C16.9,2,18,3,18,4.3v7.9c0,1.2-1.1,2.3-2.3,2.3h-5.4
			l-3.6,3.4C6.6,18,6.5,18,6.3,18c-0.2,0-0.3,0-0.4-0.2c-0.2-0.2-0.2-0.6,0-0.8l3.9-3.7h5.9c0.7,0,1.2-0.5,1.2-1.1V4.3
			c0-0.6-0.5-1.1-1.2-1.1H2.3c-0.7,0-1.2,0.5-1.2,1.1v7.9c0,0.6,0.5,1.1,1.2,1.1h2.2c0.3,0,0.6,0.3,0.6,0.6s-0.3,0.6-0.6,0.6H2.3
			c-1.3,0-2.3-1-2.3-2.3V4.3C0,3,1.1,2,2.3,2H15.7z"/>
	</g>
</g>
</svg>
