<?xml version="1.0" encoding="utf-8"?>
<!-- Generator: Adobe Illustrator 22.1.0, SVG Export Plug-In . SVG Version: 6.00 Build 0)  -->
<svg version="1.1" id="Layer_1" xmlns="http://www.w3.org/2000/svg" xmlns:xlink="http://www.w3.org/1999/xlink" x="0px" y="0px"
	 viewBox="0 0 16 16" style="enable-background:new 0 0 16 16;" xml:space="preserve">
<style type="text/css">
	.st0{fill:#1676FA;}
</style>
<title>icon/遗漏分析</title>
<desc>Created with Sketch.</desc>
<g>
	<path class="st0" d="M14.5,0H12c-0.4,0-0.7,0.4-0.7,0.8c0,0.4,0.3,0.7,0.7,0.7h2.6v13.1H1.5V1.5H4c0.4,0,0.7-0.4,0.7-0.8
		C4.7,0.3,4.4,0,4,0H1.5C0.7,0,0,0.7,0,1.5v13c0,0.8,0.7,1.5,1.5,1.6h13c0.8,0,1.5-0.7,1.5-1.5V1.5C16,0.7,15.3,0,14.5,0z"/>
	<path class="st0" d="M11.3,10.5L11.3,10.5l-6.6,0.1c-0.4,0-0.7,0.3-0.7,0.7c0,0.4,0.3,0.7,0.7,0.6h6.6c0.4,0,0.7-0.3,0.7-0.7
		C12,10.8,11.7,10.5,11.3,10.5z"/>
	<path class="st0" d="M11.3,7.3H4.7C4.3,7.3,4,7.6,4,8s0.3,0.7,0.7,0.7h6.6C11.7,8.7,12,8.4,12,8S11.7,7.3,11.3,7.3z"/>
	<path class="st0" d="M6.5,1.5h3c0.4,0,0.6-0.4,0.6-0.8C10.1,0.3,9.8,0,9.4,0H6.5C6.1,0,5.8,0.4,5.8,0.8C5.8,1.2,6.1,1.5,6.5,1.5z"
		/>
	<path class="st0" d="M11.3,4H4.7C4.3,4,4,4.3,4,4.7c0,0.4,0.3,0.8,0.7,0.7h6.6c0.4,0,0.7-0.3,0.7-0.7C12,4.3,11.7,4,11.3,4z"/>
</g>
</svg>
