<svg xmlns="http://www.w3.org/2000/svg" viewBox="0 0 20 20"><path d="M.1 10.1c.1-.2.3-.6.6-1.1.5-.8 1.2-1.6 1.9-2.4C4.7 4.4 7.2 3 10 3s5.3 1.4 7.4 3.6c.7.8 1.3 1.6 1.9 2.4.3.5.5.9.7 1.1.1.2.1.5 0 .7s-.3.6-.7 1.1c-.5.8-1.2 1.6-1.9 2.4-2.1 2.3-4.6 3.7-7.4 3.7s-5.3-1.4-7.4-3.6c-.7-.8-1.3-1.6-1.9-2.4-.3-.5-.5-.9-.7-1.1 0-.3 0-.5.1-.8zm2 1c.5.7 1 1.5 1.7 2.2 1.8 1.9 3.9 3.1 6.2 3.1s4.4-1.1 6.2-3.1c.6-.7 1.2-1.4 1.7-2.2.1-.2.3-.4.4-.6-.1-.2-.2-.4-.4-.6-.5-.7-1-1.5-1.7-2.2-1.8-1.9-3.9-3.1-6.2-3.1S5.6 5.8 3.8 7.7c-.6.7-1.2 1.5-1.7 2.2-.1.2-.3.4-.4.6.2.2.3.4.4.6zm7.9 2.7c-1.8 0-3.3-1.5-3.3-3.3S8.2 7.2 10 7.2s3.3 1.5 3.3 3.3-1.5 3.3-3.3 3.3zm0-1.6c.9 0 1.7-.7 1.7-1.7s-.8-1.7-1.7-1.7-1.7.7-1.7 1.7.8 1.7 1.7 1.7z" fill="#666"/></svg>