<?xml version="1.0" encoding="utf-8"?>
<!-- Generator: Adobe Illustrator 22.1.0, SVG Export Plug-In . SVG Version: 6.00 Build 0)  -->
<svg version="1.1" id="Layer_1" xmlns="http://www.w3.org/2000/svg" xmlns:xlink="http://www.w3.org/1999/xlink" x="0px" y="0px"
	 viewBox="0 0 19 19" style="enable-background:new 0 0 19 19;" xml:space="preserve">
<style type="text/css">
	.st0{fill:none;stroke:#1676FA;stroke-linecap:round;stroke-linejoin:round;}
</style>
<title>icon_充值/可按</title>
<desc>Created with Sketch.</desc>
<g id="icon_x5F_充值_x2F_可按">
	<g id="icon_充值">
		<path class="st0" d="M18.5,14.8V9.3h-1.2v-2c0-0.9-0.7-1.7-1.7-1.7H3.2c-0.9,0-1.7,0.8-1.7,1.7v9.5c0,0.9,0.7,1.7,1.7,1.7h12.4
			c0.9,0,1.7-0.8,1.7-1.7v-2H18.5z M11.6,14.8h5.7v2c0,0.9-0.8,1.7-1.7,1.7H3.2c-0.9,0-1.7-0.8-1.7-1.7V7.4c0-0.9,0.8-1.7,1.7-1.7
			h12.4c0.9,0,1.7,0.8,1.7,1.7v2h-5.7c-0.9,0-1.7,0.8-1.7,1.7v2.1C9.9,14.1,10.7,14.8,11.6,14.8z M11.6,9.3h6.9v5.6h-6.9
			c-0.9,0-1.7-0.8-1.7-1.7V11C9.9,10.1,10.7,9.3,11.6,9.3z M13,1.5l1.3,2.7c0,0,0,0,0,0c0,0,0,0,0,0L13,1.5L6.5,4.2c0,0,0,0,0,0
			c0,0,0,0,0,0L13,1.5z M12.5,12.6c0.3,0,0.5-0.2,0.5-0.5s-0.2-0.5-0.5-0.5s-0.5,0.2-0.5,0.5S12.2,12.6,12.5,12.6z M12.5,12.7
			c-0.3,0-0.6-0.3-0.6-0.6c0-0.3,0.2-0.6,0.6-0.6c0.3,0,0.6,0.3,0.6,0.6C13,12.4,12.8,12.7,12.5,12.7z"/>
	</g>
</g>
</svg>
