<?xml version="1.0" encoding="utf-8"?>
<!-- Generator: Adobe Illustrator 22.1.0, SVG Export Plug-In . SVG Version: 6.00 Build 0)  -->
<svg version="1.1" id="Layer_1" xmlns="http://www.w3.org/2000/svg" xmlns:xlink="http://www.w3.org/1999/xlink" x="0px" y="0px"
	 viewBox="0 0 14 16" style="enable-background:new 0 0 14 16;" xml:space="preserve">
<style type="text/css">
	.st0{fill:#1676FA;}
</style>
<title>icon_玩法规则</title>
<desc>Created with Sketch.</desc>
<g id="icon_玩法规则">
	<path class="st0" d="M11.3,1.1c1,0,1.8,0.8,1.8,1.7v11.2c0,0.9-0.8,1.7-1.8,1.7H1.8c-1,0-1.8-0.8-1.8-1.7V2.8
		c0-0.9,0.8-1.7,1.8-1.7h1.9C3.9,0.5,4.6,0,5.3,0h2.4c0.8,0,1.4,0.5,1.7,1.1H11.3z M4.8,1.7v0.6h3.6V1.7c0-0.3-0.3-0.6-0.6-0.6H5.3
		C5,1.1,4.8,1.4,4.8,1.7z M11.9,14.1V2.8c0-0.3-0.3-0.6-0.6-0.6H9.5v1.1H3.6V2.2H1.8c-0.3,0-0.6,0.3-0.6,0.6v11.2
		c0,0.3,0.3,0.6,0.6,0.6h9.5C11.6,14.6,11.9,14.4,11.9,14.1z M3.6,7.9h5.9V9H3.6V7.9z M3.6,10.1h3v1.1h-3V10.1z"/>
</g>
</svg>
