<?xml version="1.0" encoding="utf-8"?>
<!-- Generator: Adobe Illustrator 22.1.0, SVG Export Plug-In . SVG Version: 6.00 Build 0)  -->
<svg version="1.1" id="Layer_1" xmlns="http://www.w3.org/2000/svg" xmlns:xlink="http://www.w3.org/1999/xlink" x="0px" y="0px"
	 viewBox="0 0 17 17" style="enable-background:new 0 0 17 17;" xml:space="preserve">
<style type="text/css">
	.st0{fill:none;stroke:#1676FA;}
</style>
<title>icon_走势图</title>
<desc>Created with Sketch.</desc>
<g id="icon_走势图">
	<g id="Shape">
		<path class="st0" d="M11.2,15.9h4.1c0.5,0,0.7-0.2,0.7-1V2.2c0-0.6-0.5-1.1-1-1.1h-3c-0.5,0-1,0.5-1,1.1V6V2.2
			c0-0.6,0.4-1.1,1-1.1h3c0.6,0,1,0.5,1,1.1v12.7c0,0.7-0.1,1-0.7,1H11.2z M11.2,15.9H11V8.2v7.7H11.2z"/>
		<path class="st0" d="M11,15.7v0.2H6h5V15.7z"/>
		<path class="st0" d="M11,6H7C6.4,6,6,6.5,6,7.1v1.6V7.1C6,6.5,6.4,6,7,6H11z"/>
		<path class="st0" d="M2,11c-0.5,0-1,0.5-1,1.1l0,2.8c0,0.3,0.1,0.6,0.3,0.7C1.5,15.9,1.7,16,2,15.9l3.9,0V11H2z M2,11h4v4.9H5.5
			l-3.5,0c-0.3,0-0.5-0.1-0.7-0.3C1.1,15.5,1,15.2,1,14.9l0-2.8C1,11.5,1.4,11,2,11z"/>
		<path class="st0" d="M6.2,1.1l-5,5.5L6.2,1.1z"/>
		<path class="st0" d="M4.2,1.1h2H4.2z"/>
		<path class="st0" d="M11,5.9l4.9,5.4L11,5.9z"/>
		<path class="st0" d="M6.2,3.3V1.1V3.3z"/>
		<path class="st0" d="M11,9.4l4.9,5.4L11,9.4z"/>
		<path class="st0" d="M11,13l2.7,2.9L11,13z"/>
		<path class="st0" d="M11,2.3l4.9,5.4L11,2.3z"/>
		<path class="st0" d="M13.2,1.2l2.7,2.9L13.2,1.2z"/>
	</g>
</g>
</svg>
