<?xml version="1.0" encoding="utf-8"?>
<!-- Generator: Adobe Illustrator 22.1.0, SVG Export Plug-In . SVG Version: 6.00 Build 0)  -->
<svg version="1.1" id="Layer_1" xmlns="http://www.w3.org/2000/svg" xmlns:xlink="http://www.w3.org/1999/xlink" x="0px" y="0px"
	 viewBox="0 0 19 19" style="enable-background:new 0 0 19 19;" xml:space="preserve">
<style type="text/css">
	.st0{fill:#1676FA;}
	.st1{fill:#D8D8D8;fill-opacity:0;}
</style>
<title>icon_用户中心</title>
<desc>Created with Sketch.</desc>
<g id="icon_用户中心">
	<g>
		<path class="st0" d="M12.1,9.9c1.4-0.9,2.2-2.4,2.2-4.1c0-2.7-2.2-4.8-4.8-4.8S4.7,3.2,4.7,5.8c0,1.7,0.9,3.2,2.2,4.1
			C3.5,11,1.1,14.1,1,17.8c0,0.3,0.2,0.6,0.6,0.6c0.3,0,0.6-0.2,0.6-0.6c0.1-3.9,3.4-7.1,7.3-7.1s7.3,3.2,7.3,7.1
			c0,0.3,0.3,0.6,0.6,0.6l0,0c0.3,0,0.6-0.3,0.6-0.6C17.9,14.1,15.4,11,12.1,9.9L12.1,9.9z M5.8,5.8c0-2,1.7-3.7,3.7-3.7
			s3.7,1.7,3.7,3.7s-1.7,3.7-3.7,3.7S5.8,7.8,5.8,5.8L5.8,5.8z"/>
		<rect id="Mask" class="st1" width="19" height="19"/>
	</g>
</g>
</svg>
