<svg data-name="图层 1" xmlns="http://www.w3.org/2000/svg" viewBox="0 0 34 34"><path d="M20.54 24c-.16-.05-1.17-.51-.54-2.42a10.6 10.6 0 0 0 2.89-7.07c0-4.11-2.74-6.26-5.91-6.26s-5.89 2.15-5.89 6.26A10.62 10.62 0 0 0 14 21.62c.63 1.68-.51 2.31-.76 2.4C9.94 25.21 6 27.41 6 29.57V30a16.93 16.93 0 0 0 11 4 16.93 16.93 0 0 0 11-4v-.39c0-2.27-4-4.44-7.46-5.61z" fill="#4d90ff" fill-rule="evenodd"/><path d="M17 1A16 16 0 1 1 1 17 16 16 0 0 1 17 1m0-1a17 17 0 1 0 17 17A17 17 0 0 0 17 0z" fill="#4d90ff"/></svg>