<svg class="icon" viewBox="0 0 1024 1024" width="200" height="200"><path d="M378.437 552.299c-28.767-15.677-53.084-34.587-73.233-58.689-111.116-132.867-39.99-335.916 130.549-372.657 132.441-28.527 258.898 52.045 286.054 182.256 19.56 93.902-25.87 192.889-111.424 242.727-3.24 1.883-6.46 3.75-11.654 6.742 8.678 3.132 15.949 5.014 22.519 8.269 22.01 10.865 44.02 21.746 65.515 33.58 13.78 7.585 17.468 21.078 10.617 32.58-6.946 11.685-21.557 15.158-34.625 6.857-38.873-24.674-80.769-41.042-126.335-47.933-176.645-26.72-336.18 96.16-356.949 262.623-1.688 13.486-1.86 27.154-3.457 40.654-1.193 10.057-7.656 16.276-17.42 18.615-9.253 2.216-18.103.14-23.28-7.736-3.472-5.238-5.626-12.586-5.378-18.877 5.223-134.62 68.677-233.939 184.38-300.686 17.235-9.945 36.47-16.392 54.79-24.445 2.667-1.17 5.395-2.239 9.33-3.88zm300.315-205.917c-.806-103.38-86.394-185.837-191.85-184.868-105.582.969-188.628 84.455-187.728 188.727.868 101.15 87.198 183.009 192.13 182.203 103.192-.782 188.252-85.23 187.448-186.062zm112.214 463.801c0 27.543.032 53.27 0 78.987-.03 15.977-3.41 19.42-19.127 19.528-8.338.047-16.674.188-24.984-.046-11.748-.343-15.59-4.091-15.683-16.027-.218-24.983-.097-49.97-.156-74.953 0-1.86-.385-3.705-.759-6.915-4.047-.185-8.013-.541-11.997-.557-24.596-.047-49.21.063-73.824-.064-12.507-.061-16.182-3.812-16.383-16.211-.108-6.82-.03-13.638-.016-20.459.032-16.716 3.287-20.077 19.67-20.11 23.482-.039 46.944-.006 70.412-.006h12.956v-40.083c0-13.623-.12-27.256.064-40.878.172-13.122 4.06-16.989 16.927-17.152a945.363 945.363 0 0 1 26.115 0c12.635.178 16.708 4.3 16.754 17.314.11 26.425.031 52.85.031 80.799h35.665c17.033 0 34.083-.158 51.102.053 11.562.15 15.87 4.364 16.211 15.631.28 8.695.046 17.405.063 26.117.033 10.338-5.142 15.111-15.454 15.064-24.594-.125-49.209-.046-73.824-.032h-13.763z"/></svg>