<svg class="icon" viewBox="0 0 1024 1024" xmlns="http://www.w3.org/2000/svg" width="200" height="200"><defs><style/></defs><path d="M500.364 605.09h23.272c19.27 0 34.91 15.64 34.91 34.91v162.91c0 19.269-15.64 34.908-34.933 34.908H500.34c-19.293 0-34.909-15.64-34.909-34.909V640c.024-19.27 15.64-34.91 34.933-34.91zm384-116.363v419.747c0 25.205-20.853 45.708-46.546 45.708H186.182c-25.67 0-46.546-20.503-46.546-45.708V488.727h744.728m69.818-69.818H69.818v489.565c0 63.814 52.085 115.526 116.364 115.526h651.636c64.28 0 116.364-51.712 116.364-115.526V418.91zm-93.091 0h-69.818v-69.818c0-156.998-131.096-279.273-279.273-279.273-151.831 0-279.273 127.418-279.273 279.273v69.818H162.91v-69.818C162.91 158.743 321.652 0 512 0c187.95 0 349.09 152.273 349.09 349.09v69.82z"/></svg>