<svg id="图层_1" data-name="图层 1" xmlns="http://www.w3.org/2000/svg" viewBox="0 0 141.78 26"><defs><style>.cls-1{fill:#fff332}</style></defs><path class="cls-1" d="M33.92 8.02h2.96V4.75H26.77v3.17h-3.21l-.61 1.1h-.45l2.46-4.75h-3.55l-1.96 4.08v3.94h1.65l-1.58 2.78v3h6.77v-3.28h-2.56l3.7-6.77h2.3v10.09h-3.21v3.62h10.64v-3.62h-3.24V8.02z"/><path class="cls-1" d="M19.54 18.5h6.71v3.19h-6.71zm34.6.03h-8.45V17h6.38V9.17h-6.79l.33-1h7.65v6h-1l.12 3.31h5V5h-10.7l.2-.6h-4.2L41.69 7h-1.08v3.46h1.1v11.28h16.47v-3.95h-4zm-8.53-6.44h2.61V14h-2.61zm27.16-8.17h-4.44v1.94H62v13.21h6.26v3h4.48V19.1h6.41V5.86h-6.38zm-4.49 11.63h-2.22v-6.3h2.22zM75 9.25v6.3h-2.23v-6.3zm10.83-.62l-.35-3.84h-2.61l.28 3.84h2.68zm10.35 8.71h4.23v-2.95h-6.36v-.52h-4.6v.52h-6.44v2.95h4.37l-1.98 1.45h-2.39v3.11h4.77l3.97-3.25 3.78 3.25h4.96v-3.11h-2.48l-1.83-1.45zm-1.42-9.47h1.79v1.11l-1.11 1.75-.34-1.42h-3.55l.42 1.62h-1.61v2.69h7.45l2.54-3.91V5.04h-4.63l.31-.86h-4.14l-.67 1.8h-1.03v3.08h4.17l.4-1.19zm-8.93 1.21h-2.68l-.28 4.36h2.67l.29-4.36zm.35-4.77h3.7v9.36h-3.7zm26.78 7.1h5.18v.96h3.47V8.82h-1.26l.23-1.07h-3.7l-.13 1.07h-2.09l-.13-1.06h-3.63l.16 1.06h-1.39v3.55h3.29v-.96zm8.5-6.52h-3.9l-.04-.6h-4.1v.6h-3.53v2.65h11.57V4.89zM108.19 21.7l1.29.37V9.27h-1.29V21.7zm-4.07.37l1.35-.37V9.27h-1.35v12.8z"/><path class="cls-1" d="M108.51 4.2h-3.37v1.74h-1.06V9h1.58l.04 12.93h2.31V9h1.56V5.94h-1.06V4.2zm13.18 11.18v-2.61h-4.25l-.08-1.12h-3.84l.06 1.12h-3.92v2.61H111l-.53 3.54h-.75v2.92h3.78l.55-3.28h3.88v.74h-2.03l.15 2.55h5.42v-5.91h-6.96l.08-.52 7.1-.04z"/></svg>