<svg data-name="图层 3" xmlns="http://www.w3.org/2000/svg" viewBox="0 0 200 200"><path d="M50.21 100.7c0 29.08 22.41 52.62 50.1 52.62s50.1-23.48 50.1-52.62-22.41-52.62-50.1-52.62-50.1 23.56-50.1 52.62z" fill="#e7f5fd"/><path d="M72.82 66.32l6.65-1a5 5 0 0 0 4.14-4.38l1.33-10.3a51 51 0 0 0-29.26 26.14h7.17a6 6 0 0 0 5.66-4.38l.94-3.13a4.18 4.18 0 0 1 3.37-2.95z" fill="#00dfa3"/><path d="M61.67 124.12l-5.6 1.29a51.25 51.25 0 0 0 23.4 23.2l.83-13a7.47 7.47 0 0 0-4.14-7.28l-7.3-3.43a11 11 0 0 0-7.19-.78zm36-42.71L97 99.11a7.91 7.91 0 0 0 2.74 6.26l18.9 16.12 14.6-4.44-6.34-9.4a5.13 5.13 0 0 1 1.19-7l4.2-3.13a4.83 4.83 0 0 1 6.06.26l2.39 2.07a4.73 4.73 0 0 0 3.92 1.08l5.69-1.07a52.77 52.77 0 0 0-29.59-47.29l-1.47 6.49a4.75 4.75 0 0 1-1.56 2.56L100 76.55a6.49 6.49 0 0 0-2.31 4.86zm-35.73 42.71l-5.61 1.29a51.38 51.38 0 0 0 23.35 23.2l.83-13a7.5 7.5 0 0 0-4.17-7.28l-7.29-3.43a11.16 11.16 0 0 0-7.11-.78z" fill="#7dadef"/><path d="M105.76 140.28a3.19 3.19 0 0 1 .92-1.56l4.08-3.78a2.44 2.44 0 0 1 2.64-.45l2.63 1.13a2.75 2.75 0 0 1 1.33 3.66 1.28 1.28 0 0 1-.11.2l-1.19 2.12a3.24 3.24 0 0 1-2.64 1.69l-5.09.3a2.6 2.6 0 0 1-2.65-2.55 2.42 2.42 0 0 1 .08-.71z" fill="#afa"/><path d="M100.38 48.16c-1.23 0-2.45.05-3.67.14 25.93 2 46.38 24.72 46.38 52.48s-20.44 50.46-46.39 52.5c1.2.09 2.44.14 3.66.14 27.63 0 50.1-23.49 50.1-52.64S128 48.16 100.38 48.16z" fill="#f0f8fc"/><path d="M144.7 100.89l5.7-1.06a54.41 54.41 0 0 0-7.94-27.54l-.16-.29c0-.12-.14-.23-.22-.36a51.17 51.17 0 0 0-21.35-19l-.83 3.68a53.23 53.23 0 0 1 23.2 44.4v.11a4.15 4.15 0 0 0 1.57 0z" fill="#7fe4ff"/><path d="M161.39 100.14a39.21 39.21 0 0 0-.13-5.42c-.95-2.53-1.77-2.11-5.92-5.6-2.25-1.9-3.8-3.82-7.23-5.36 1.18 3.06 1.43 6.95 2 10.26a5.76 5.76 0 0 1 .91.72c2.26 1.91 3.43 3.77 3.48 5.6s-1 3.78-3.14 5.8c-.32.29-.65.61-1 .9a40.24 40.24 0 0 1-10.11 5.67c-10.43 4.28-24.47 6.86-39.5 7.3S71.6 118.66 61 115a40.54 40.54 0 0 1-10.17-4.93c-.47-.33-.9-.66-1.3-1-2.26-1.91-3.43-3.77-3.48-5.59s1-3.79 3.13-5.81a10.79 10.79 0 0 1 1.21-1 25.12 25.12 0 0 1 .48-4.9c0-.11-.39 0-.34-.13.83-2.13-.53-2.93.22-5.23-3.45 1.77-3.93 3.84-6.12 5.92-3 2.79-5.15 3.6-5.42 6a53 53 0 0 0 0 5.35c0 2.77 1.17 6.94 6 11a35.64 35.64 0 0 0 7.44 4.7 54.43 54.43 0 0 0 6.26 2.5c10.27 3.54 23.49 5.42 37.58 5.42h4.58c15.82-.45 30.64-3.22 41.81-7.83a58.67 58.67 0 0 0 6.26-3 35.41 35.41 0 0 0 7-5c4.69-4.34 5.51-8.56 5.44-11.35z" fill="#f99403"/><path d="M161.34 97c0-2.77-1.17-6.94-6-11a35.28 35.28 0 0 0-8.5-5.29 53.9 53.9 0 0 1 2.7 9.58 15.78 15.78 0 0 1 1.57 1.21c2.26 1.89 3.41 3.77 3.48 5.58s-1 3.78-3.14 5.81c-.32.3-.67.6-1 .9a40.52 40.52 0 0 1-10.1 5.68c-10.45 4.27-24.46 6.87-39.5 7.29s-29.19-1.34-39.83-5a40.16 40.16 0 0 1-10.18-4.95c-.47-.33-.89-.65-1.3-1-2.25-1.91-3.41-3.79-3.47-5.61s1-3.77 3.13-5.79a19.94 19.94 0 0 1 1.73-1.46 56.21 56.21 0 0 1 2.21-9.67 36.94 36.94 0 0 0-8.5 5.77c-4.7 4.37-5.53 8.58-5.46 11.36s1.19 6.93 6.06 11a34.28 34.28 0 0 0 7.43 4.7 59.22 59.22 0 0 0 6.26 2.51c10.26 3.52 23.49 5.41 37.58 5.41H101c15.8-.45 30.64-3.13 41.79-7.82a57 57 0 0 0 6.26-3 34.27 34.27 0 0 0 7-5c4.7-4.35 5.53-8.58 5.44-11.35z" fill="#fcca4c"/><path d="M61.8 118.75a58 58 0 0 1-6.19-2.5 36.12 36.12 0 0 1-7.45-4.7c-4.85-4.1-6-8.25-6-11s.83-7 5.46-11.35a31.14 31.14 0 0 1 4.81-3.66c.2-.71.42-1.41.64-2.1a37 37 0 0 0-8.5 5.78c-4.7 4.37-5.53 8.58-5.46 11.35s1.19 6.93 6 11a34.35 34.35 0 0 0 7.44 4.7 59.15 59.15 0 0 0 6.26 2.5c10.26 3.52 23.49 5.4 37.58 5.4H98a118 118 0 0 1-36-5.42z" fill="#faaa20"/><path d="M161.34 97c0-2.77-1.17-6.94-6-11a35.28 35.28 0 0 0-8.5-5.29c.33.86.64 1.72.94 2.6a31 31 0 0 1 3.53 2.69c4.85 4.09 6 8.26 6 11s-.83 7-5.47 11.36a35.51 35.51 0 0 1-7 5 60.67 60.67 0 0 1-6.26 3c-11.17 4.56-26 7.31-41.81 7.83h4.06c15.79-.45 30.64-3.13 41.78-7.83a56.09 56.09 0 0 0 6.27-3 34.94 34.94 0 0 0 7-5c4.7-4.36 5.54-8.58 5.46-11.36z" fill="#fee5a6"/><path d="M61.67 124.12l-5.6 1.29a51.25 51.25 0 0 0 23.4 23.2l.83-13a7.47 7.47 0 0 0-4.14-7.28l-7.3-3.43a11 11 0 0 0-7.19-.78z" fill="#5fff91"/></svg>