<svg width="21" height="23" viewBox="0 0 21 23" xmlns="http://www.w3.org/2000/svg"><path d="M2.344 9.087c-.118.313.055.511 0 1.702-.015.32-1.39 1.77-1.936 3.275-.541 1.493-.616 3.054.22 3.667s1.614-2.041 1.716-1.655c.044.168.1.344.166.524a7.462 7.462 0 0 0 1.368 2.273c.133.152-.805.431-1.368 1.392-.562.96.161 2.706 2.958 2.706 3.608 0 4.415-1.273 4.488-1.268.269.02.287 0 .572 0 .349 0 .204.028.528 0 .175-.015 1.929 1.524 4.356 1.268 4.136-.436 3.504-1.828 3.18-2.706-.34-.917-1.538-1.347-1.485-1.405.99-1.1 1.148-1.774 1.484-2.784.139-.415 1.098 2.283 1.837 1.655.308-.262.924-1.353.308-3.667-.616-2.314-1.807-2.841-1.78-3.275.053-.903.022-1.537-.024-1.702-.22-.795-.68-.62-.68-.795 0-4.58-3.43-8.292-7.661-8.292S2.929 3.712 2.929 8.292c0 .364-.32.095-.585.795z" fill="#FFF" fill-rule="evenodd"/></svg>