<svg data-name="图层 1" xmlns="http://www.w3.org/2000/svg" viewBox="0 0 24.38 24.94" font-size=".45rem"><path d="M18.33 11.74a6.14 6.14 0 1 0-11 3.79A21.46 21.46 0 0 1 9 18v3.7a.61.61 0 0 0 .62.61h.7v.3a1.3 1.3 0 0 0 1.29 1.3h1.08a1.3 1.3 0 0 0 1.3-1.3v-.3h.69a.61.61 0 0 0 .62-.61V18a21.14 21.14 0 0 1 1.7-2.47 6.06 6.06 0 0 0 1.33-3.79zm-7 5.44l-1.06-4.63.64-.4.79.74a.32.32 0 0 0 .23.09.33.33 0 0 0 .21-.11l.66-.87.39.78a.32.32 0 0 0 .28.17.2.2 0 0 0 .11 0l.52-.21-1 4.44zm2.81 1.23v1h-3.87v-1zm-3.84 2.67v-1h3.84v1zm4.11-3.9H14l1.16-5.07a.46.46 0 0 0-.9-.21v.1l-.66.28-.48-.94a.3.3 0 0 0-.24-.17.3.3 0 0 0-.27.11l-.77.94-.72-.68a.32.32 0 0 0-.37 0l-.67.41a.46.46 0 0 0-.9.21l1.17 5.07H10a23.72 23.72 0 0 0-1.68-2.42 4.86 4.86 0 0 1-1-3 4.91 4.91 0 0 1 9.82 0 4.8 4.8 0 0 1-1.05 3 23.15 23.15 0 0 0-1.71 2.37zM21 17a.47.47 0 0 1-.25-.07l-2.21-1.27a.5.5 0 0 1-.19-.68.51.51 0 0 1 .68-.19L21.24 16a.51.51 0 0 1 .18.69.5.5 0 0 1-.42.31zm-1.14-5.13a.5.5 0 0 1-.5-.5.5.5 0 0 1 .5-.5h2.56a.5.5 0 0 1 0 1zM18.89 8a.5.5 0 0 1-.25-.93l2.21-1.27a.49.49 0 0 1 .68.18.51.51 0 0 1-.18.69L19.14 8a.45.45 0 0 1-.25 0zm-2.76-2.83a.45.45 0 0 1-.25-.07.51.51 0 0 1-.19-.68L17 2.2a.51.51 0 0 1 .65-.2.49.49 0 0 1 .18.68l-1.27 2.24a.5.5 0 0 1-.43.25zm-3.82-1.09a.5.5 0 0 1-.5-.5V1a.5.5 0 0 1 .5-.5.5.5 0 0 1 .5.5v2.58a.5.5 0 0 1-.5.5zm-3.85.97A.5.5 0 0 1 8 4.8L6.74 2.59a.49.49 0 0 1 .18-.68.51.51 0 0 1 .69.18L8.89 4.3a.49.49 0 0 1-.18.7.47.47 0 0 1-.25.05zM5.61 7.81a.54.54 0 0 1-.25-.06L3.14 6.48a.5.5 0 0 1 .5-.87l2.22 1.27a.5.5 0 0 1-.25.93zM2 11.64a.5.5 0 0 1-.5-.5.5.5 0 0 1 .5-.5h2.52a.5.5 0 0 1 .5.5.5.5 0 0 1-.5.5zm1.28 5.13a.5.5 0 0 1-.28-.93l2.21-1.29a.49.49 0 0 1 .68.18.51.51 0 0 1-.18.69L3.53 16.7a.43.43 0 0 1-.25.07z" fill="#e2c483"/></svg>