<svg data-name="图层 1" xmlns="http://www.w3.org/2000/svg" viewBox="0 0 24.38 24.94" font-size=".45rem"><path d="M19.5 11.28a2.71 2.71 0 0 0 0-.29 3 3 0 0 0-.43-1.57.34.34 0 0 0 0-.1 1.83 1.83 0 0 0-.17-.75c-.17-3.94-2.67-7.08-6.73-7.08S5.63 4.63 5.46 8.57a1.69 1.69 0 0 0-.17.75v.1A3 3 0 0 0 4.87 11a2.71 2.71 0 0 0 0 .29 5.49 5.49 0 0 0-2.13 2.89c-.8 1.93-.93 3.77-.29 4.12.45.22 1.15-.3 1.8-1.3a5.51 5.51 0 0 0 1.8 2.85c-1 .36-1.57.95-1.57 1.62 0 1.1 1.68 2 3.77 2 1.87 0 3.43-.73 3.72-1.68h.44c.29.95 1.85 1.68 3.73 1.68 2.08 0 3.77-.89 3.77-2 0-.67-.63-1.26-1.58-1.62a5.44 5.44 0 0 0 1.8-2.85c.66 1 1.35 1.53 1.79 1.3.65-.35.52-2.19-.29-4.12a5.44 5.44 0 0 0-2.13-2.9z" fill="#e2c483"/></svg>