<svg id="图层_1" data-name="图层 1" xmlns="http://www.w3.org/2000/svg" viewBox="0 0 24.38 24.94" font-size=".45rem"><defs><style>.cls-2{fill:#e2c483}</style></defs><g style="isolation:isolate"><path class="cls-2" d="M21.71 14v-.66A9.79 9.79 0 0 0 19.15 6a8.34 8.34 0 0 0-3-1.93C16 2.5 14.24 1.24 12.12 1.24s-3.87 1.26-4 2.87A8.25 8.25 0 0 0 5.09 6a9.83 9.83 0 0 0-2.57 7.25v.8A2 2 0 0 0 2 16.18a2.13 2.13 0 0 0 1.36 1.48 2.1 2.1 0 0 0 1.12.34 7.65 7.65 0 0 0 7.73 6 7.66 7.66 0 0 0 7.72-6H20a2.17 2.17 0 0 0 1.36-.48 2.18 2.18 0 0 0 1-1.33 2.08 2.08 0 0 0-.65-2.19zm-13-4.31a9.38 9.38 0 0 0 4.36 3.63 15.77 15.77 0 0 0 2.33.62c1.54.33 3 .64 4 1.92v.07a7.91 7.91 0 0 1-.11 1.39 7.89 7.89 0 0 1-6 3.65 1.36 1.36 0 0 0-1.06-.43c-.65 0-1.18.35-1.18.79s.53.79 1.18.79a1.16 1.16 0 0 0 1.17-.66 9.49 9.49 0 0 0 2.4-.6A8.28 8.28 0 0 0 18.65 19c.12-.13.25-.26.37-.4a6.86 6.86 0 0 1-6.8 4.74A7 7 0 0 1 5 15.92v-.41c0-.18 0-.68.06-1.16a6.19 6.19 0 0 0 3.32-3.28zm1.52 6.6a1.35 1.35 0 0 1-.68 1.2 1.37 1.37 0 1 1 .68-1.2zm6.4 0a1.36 1.36 0 1 1-1.35-1.35 1.35 1.35 0 0 1 1.35 1.35z"/><path class="cls-2" d="M12.21 24.09A7.7 7.7 0 0 1 4.44 18a2.18 2.18 0 0 1-1.11-.33 2.22 2.22 0 0 1-1.39-1.51 2.12 2.12 0 0 1 .54-2.12v-.78A9.85 9.85 0 0 1 5.05 6 8.25 8.25 0 0 1 8 4.08c.2-1.62 2-2.89 4.09-2.89S16 2.46 16.21 4.08a8.21 8.21 0 0 1 3 1.93 9.82 9.82 0 0 1 2.58 7.29v.64a2.11 2.11 0 0 1 .68 2.25 2.21 2.21 0 0 1-1.05 1.36A2.23 2.23 0 0 1 20 18a7.68 7.68 0 0 1-7.75 6.06zm-.09-22.81c-2.07 0-3.82 1.25-4 2.84a8.21 8.21 0 0 0-3 1.93 9.71 9.71 0 0 0-2.55 7.21v.8A2 2 0 0 0 2 16.17a2.1 2.1 0 0 0 1.34 1.45 2.08 2.08 0 0 0 1.11.32 7.61 7.61 0 0 0 7.69 6 7.61 7.61 0 0 0 7.68-6H20a2.08 2.08 0 0 0 1.33-.47 2.13 2.13 0 0 0 1-1.3 2 2 0 0 0-.65-2.17v-.65a9.73 9.73 0 0 0-2.55-7.22 8.21 8.21 0 0 0-3-1.93c-.18-1.59-1.93-2.84-4-2.84zm.1 22.08c-4.28 0-7.26-3.06-7.26-7.44v-.41c0-.15 0-.54.05-1.16H5a6 6 0 0 0 3.3-3.29l.39-1.52.06.09a9.43 9.43 0 0 0 4.33 3.61 16.1 16.1 0 0 0 2.33.62c1.55.33 3 .64 4 1.94v.09a9.09 9.09 0 0 1-.11 1.39 8 8 0 0 1-6 3.68 1.26 1.26 0 0 0-1-.42c-.63 0-1.14.34-1.14.75s.51.75 1.14.75a1.1 1.1 0 0 0 1.12-.63 9.49 9.49 0 0 0 2.4-.6 8.41 8.41 0 0 0 2.81-1.88l.36-.4.15-.17-.07.21a6.93 6.93 0 0 1-6.84 4.78zm-7.15-9c0 .6-.05 1-.05 1.13v.41a7 7 0 0 0 7.17 7.35 6.85 6.85 0 0 0 6.68-4.5l-.22.23a8.34 8.34 0 0 1-2.84 1.9 9.41 9.41 0 0 1-2.39.6 1.18 1.18 0 0 1-1.2.66c-.68 0-1.23-.37-1.23-.83s.55-.84 1.23-.84a1.4 1.4 0 0 1 1.08.44 7.9 7.9 0 0 0 5.94-3.63 8.94 8.94 0 0 0 .11-1.37c-1-1.27-2.42-1.58-4-1.9a15.08 15.08 0 0 1-2.34-.63 9.64 9.64 0 0 1-4.29-3.61l-.33 1.32a6.16 6.16 0 0 1-3.32 3.29zm3.79 3.29a1.42 1.42 0 1 1 1.42-1.42 1.43 1.43 0 0 1-1.42 1.42zm0-2.75a1.33 1.33 0 1 0 1.33 1.33 1.34 1.34 0 0 0-1.33-1.33zm6.42 2.73a1.4 1.4 0 1 1 1.39-1.4 1.4 1.4 0 0 1-1.39 1.4zm0-2.71a1.31 1.31 0 1 0 1.3 1.31 1.31 1.31 0 0 0-1.3-1.31z"/></g></svg>