<svg xmlns="http://www.w3.org/2000/svg" viewBox="0 0 22 23"><path d="M2.4 8.3h17V6.4c0-.4 0-.8-.2-1.2-.1-.3-.3-.5-.6-.6-.4-.2-.8-.2-1.2-.2h-1.1v-.7h1.9c.4 0 .8 0 1.2.2.3.1.5.3.6.6.2.4.3.8.2 1.2v13.1c0 .4 0 .8-.2 1.2-.1.3-.3.5-.6.6-.4.2-.8.3-1.2.2H3.6c-.4 0-.8 0-1.2-.2-.3-.1-.5-.3-.6-.6-.2-.4-.3-.8-.2-1.2V5.6c0-.4 0-.8.2-1.2.2-.2.4-.4.6-.5.4-.2.8-.2 1.2-.2h1.9v.8H4.4c-.4 0-.8 0-1.2.2-.2.1-.4.3-.6.5-.2.4-.2.8-.2 1.2v1.9zm0 .8V18c0 .4 0 .8.2 1.2.1.3.3.5.6.6.4.1.8.2 1.2.1h13.1c.4 0 .8 0 1.2-.2.3-.1.5-.3.6-.6.2-.4.3-.8.2-1.2V9.1H2.4zm10.9-5.4v.8H8.6v-.8h4.7zM7.1 2.1c.4 0 .8.3.8.8V6c0 .4-.3.8-.8.8s-.8-.4-.8-.8V2.9c0-.4.3-.8.8-.8zm7.7 0c.4 0 .8.3.8.8V6c0 .4-.3.8-.8.8S14 6.4 14 6V2.9c0-.4.4-.8.8-.8zM6.3 13.7c-.9 0-1.5-.7-1.5-1.5 0-.9.7-1.5 1.5-1.5s1.5.7 1.5 1.5c.1.8-.6 1.5-1.5 1.5zm0 4.7c-.9 0-1.5-.7-1.5-1.5 0-.9.7-1.5 1.5-1.5s1.5.7 1.5 1.5c.1.8-.6 1.5-1.5 1.5zm4.7 0c-.9 0-1.5-.7-1.5-1.5 0-.9.7-1.5 1.5-1.5.9 0 1.5.7 1.5 1.5s-.7 1.5-1.5 1.5zm0-4.7c-.9 0-1.5-.7-1.5-1.5s.7-1.5 1.5-1.5c.9 0 1.5.7 1.5 1.5s-.7 1.5-1.5 1.5zm4.6 0c-.9 0-1.5-.7-1.5-1.5s.7-1.5 1.5-1.5c.9 0 1.5.7 1.5 1.5.1.8-.6 1.5-1.5 1.5z" fill-rule="evenodd" clip-rule="evenodd"/></svg>