<svg xmlns="http://www.w3.org/2000/svg" viewBox="0 0 200 200"><path d="M36.3 169.7c-5.9 0-10.6-4.8-10.7-10.7V52.3c0-5.9 4.8-10.6 10.7-10.7H47v10.7c0 2.9 2.4 5.3 5.3 5.3s5.3-2.4 5.3-5.3V41.7h26.7v10.7c0 2.9 2.4 5.3 5.3 5.3s5.3-2.4 5.3-5.3V41.7h26.7v10.7c0 2.9 2.4 5.3 5.3 5.3s5.3-2.4 5.3-5.3V41.7h10.7c5.9 0 10.6 4.8 10.7 10.7V111c3.6 0 7.2.5 10.7 1.3v-60c0-11.8-9.6-21.3-21.3-21.3h-10.7V20.3c0-2.9-2.4-5.3-5.3-5.3s-5.3 2.4-5.3 5.3V31H95V20.3c0-2.9-2.4-5.3-5.3-5.3s-5.3 2.4-5.3 5.3V31H57.7V20.3c0-2.9-2.4-5.3-5.3-5.3s-5.3 2.4-5.3 5.3V31H36.3C24.6 31 15 40.6 15 52.3V159c0 11.8 9.6 21.3 21.3 21.3h84.1c-2.6-3.2-4.7-6.8-6.3-10.7H36.3z"/><path d="M153.7 121.7c-17.7 0-32 14.3-32 32s14.3 32 32 32 32-14.3 32-32-14.3-32-32-32zm0 49c-2.1 2.1-5.5 2.1-7.7 0l-15-15.1c-2-2.1-1.9-5.5.2-7.5 2.1-1.9 5.3-1.9 7.3 0l11.4 11.4 19-18.9c2.1-2.1 5.5-2.1 7.5 0s2.1 5.5 0 7.5l-22.7 22.6zM68.4 84.4c0-2.9-2.4-5.3-5.3-5.3H52.3c-2.9 0-5.3 2.4-5.3 5.3s2.4 5.3 5.3 5.3H63c3 0 5.3-2.4 5.4-5.3zm64 0c0-2.9-2.4-5.3-5.3-5.3h-10.7c-2.9 0-5.3 2.4-5.3 5.3s2.4 5.3 5.3 5.3H127c3 0 5.4-2.4 5.4-5.3zm-32 0c0-2.9-2.4-5.3-5.3-5.3H84.4c-2.9 0-5.3 2.4-5.3 5.3s2.4 5.3 5.3 5.3H95c3 0 5.4-2.4 5.4-5.3zm-32 21.3c0-2.9-2.4-5.3-5.3-5.3H52.3c-2.9 0-5.3 2.4-5.3 5.3s2.4 5.3 5.3 5.3H63c3 0 5.3-2.4 5.4-5.3zm58.6-5.3h-10.7c-2.9 0-5.3 2.4-5.3 5.3s2.4 5.3 5.3 5.3H127c2.9 0 5.3-2.4 5.3-5.3s-2.3-5.3-5.3-5.3zm-26.6 5.3c0-2.9-2.4-5.3-5.3-5.3H84.4c-2.9 0-5.3 2.4-5.3 5.3s2.4 5.3 5.3 5.3H95c3 0 5.4-2.4 5.4-5.3zm-37.4 16H52.3c-2.9 0-5.3 2.4-5.3 5.3s2.4 5.3 5.3 5.3H63c2.9 0 5.3-2.4 5.3-5.3s-2.3-5.3-5.3-5.3zm32 0H84.4c-2.9 0-5.3 2.4-5.3 5.3s2.4 5.3 5.3 5.3H95c2.9 0 5.3-2.4 5.3-5.3s-2.3-5.3-5.3-5.3z"/></svg>