<svg version="1.1" id="图层_22" xmlns="http://www.w3.org/2000/svg" x="0" y="0" viewBox="0 0 22 23" xml:space="preserve"><style>.st0{fill-rule:evenodd;clip-rule:evenodd;fill:#211613}</style><path class="st0" d="M11.1 2.9c-4.8 0-8.8 3.9-8.8 8.8s3.9 8.7 8.8 8.7 8.7-3.9 8.7-8.7-3.9-8.8-8.7-8.8zm0 15.9c-4 0-7.2-3.3-7.2-7.2s3.3-7.2 7.2-7.2 7.2 3.3 7.2 7.2-3.2 7.2-7.2 7.2z"/><path class="st0" d="M14 11h-2.3V8.8c0-.3-.3-.6-.6-.6s-.6.3-.6.6V11H8.3c-.3 0-.6.4-.5.7 0 .3.3.5.5.5h2.1v2.1c0 .3.3.6.6.6s.6-.3.6-.6v-2.2h2.1c.3 0 .7-.2.7-.5.2-.3 0-.6-.4-.6z"/></svg>