<svg version="1.1" id="图层_1" xmlns="http://www.w3.org/2000/svg" x="0" y="0" viewBox="0 0 200 200" xml:space="preserve"><style>.st0{fill:#27eeb6}.st1{fill:#2cd19a}</style><path class="st0" d="M10 114c0 46.7 39.9 84.6 89.2 84.6s89.2-37.9 89.2-84.6c0-46.7-39.9-84.6-89.2-84.6S10 67.3 10 114z"/><path class="st0" d="M51.6 36.2c-2.3-2.1-13.3-11.3-15.2-17.7S44.3-1.2 71 12.2c0 0 28.5-19.4 56.4 0 0 0 32.2-16.8 34.6 7.7l-18.8 21.5c.1-.1-68 17.9-91.6-5.2z"/><path class="st1" d="M100.5 29.4v169.3c49.3 0 89.2-37.9 89.2-84.6s-39.9-84.7-89.2-84.7z"/><path class="st1" d="M127.5 12.2c-7.9-5.6-17.3-8.6-27-8.6v43.1c14.3-.8 28.6-2.6 42.7-5.4L162 19.8c-2.4-24.4-34.5-7.6-34.5-7.6z"/><path d="M145.9 36.3s.5 7.2-7.4 9.5-47.6 13.6-80.3 0c0 0-3.6-2.3-3.2-6.2 0 0 0-3.3 4.8-1.8 0 0 34.6 17.6 82-1.5 0 0 3.8-2.3 4.1 0z" fill="#188462"/><path d="M82.7 79.3l17.7 32.8 17.7-32.8h9.9l-20.4 35.9h14.9v5h-17.7v9.8h17.7v5h-17.7v15.7H96V135H78.4v-5H96v-9.8H78.4v-5h14.8L72.8 79.3h9.9z" fill="#fff"/></svg>