<svg id="图层_1" data-name="图层 1" xmlns="http://www.w3.org/2000/svg" viewBox="0 0 200 200"><defs><style>.cls-1{fill:#231815}</style></defs><path class="cls-1" d="M133.6 177.6c-4.8-2.6-9.8-5.6-13.6-9.2-11.2-10.6-22-21.6-32.8-32.6-14.8-15.2-16.6-35.8-1-49 4.8-4.2 9-2.4 10.4-.2 1.2 1.8 2.2 6.6-3.4 11.4-9.4 8-5.6 19.6 3.2 28.4l33 33c9.4 9.2 22.8 9.6 31.8.8 8.6-8.6 7.8-21-1.2-30.2-9.2-9.2-14.6-13.6-23.8-22.8-2.8-2.8-6.8-7-3.4-11.6 2.2-3 7.2-1.4 10.2.8 10.2 7.8 16.4 14 25.4 23.4 10.8 11.2 13.2 23.6 10.6 35.8-2.2 10-10.4 19.8-24.4 23.8-.4-.4-13.2 2.2-21-1.8z"/><path class="cls-1" d="M28 32.2c12-15.8 36.8-15.8 52.6-1 12.8 12 23 21.6 35 34.4 13.2 14 11.2 32-1 45.8-4 4.4-9.8 4.4-12.4 1-2.2-4-1-6.6 2.8-11.2 8.4-10.2 8.2-19.4-1.2-28.8C93 61.6 82.2 50.6 71.4 40c-9.4-9.4-22.8-9.8-31.8-1s-8.8 21.2 1.2 32C49.4 80.4 59 89.2 68 98.2c3 3 4.4 6.4 2.8 9.8-1 2-3 2.8-5.8 2.6-2-.2-4.8-2.6-6.2-3.8-9.4-9.2-17.2-16.8-26.2-26.2-6-6-12-16-12.6-21.8-1.2-11.2 4-21.4 8-26.6z"/></svg>