<svg version="1.1" id="图层_22" xmlns="http://www.w3.org/2000/svg" x="0" y="0" viewBox="0 0 22 23" xml:space="preserve"><style>.st0{fill:#201512}</style><path class="st0" d="M6.5 10.2c-.7 0-1.3.6-1.3 1.3s.6 1.3 1.3 1.3 1.3-.6 1.3-1.3c-.1-.7-.6-1.3-1.3-1.3zm4.4 0c-.7 0-1.3.6-1.3 1.3s.6 1.3 1.3 1.3c.7 0 1.3-.6 1.3-1.3s-.6-1.3-1.3-1.3zm4.5 0c-.7 0-1.3.6-1.3 1.3 0 .7.6 1.3 1.3 1.3.7 0 1.3-.6 1.3-1.3 0-.7-.6-1.3-1.3-1.3z"/><path class="st0" d="M17.8 4.7C16 2.9 13.6 1.9 11 1.9c-5.3 0-9.6 4.3-9.6 9.7 0 5.3 4.3 9.6 9.7 9.6 5.3 0 9.6-4.3 9.6-9.7 0-2.6-1-5-2.9-6.8zm-6.8 15c-4.5 0-8.2-3.7-8.2-8.2C2.9 7 6.5 3.4 11 3.4c2.2 0 4.2.8 5.8 2.4 1.5 1.5 2.4 3.6 2.4 5.8 0 4.4-3.7 8-8.2 8.1z"/></svg>