<svg version="1.1" id="图层_22" xmlns="http://www.w3.org/2000/svg" x="0" y="0" viewBox="0 0 22 23" xml:space="preserve"><style>.st0{fill-rule:evenodd;clip-rule:evenodd;fill:#221714}</style><path class="st0" d="M17.6 5.5c-1.6-1.7-3.9-2.6-6.3-2.6-4.9 0-8.6 3.8-8.6 8.6s3.8 8.7 8.6 8.7 8.7-3.8 8.7-8.6c0-2.4-.8-4.5-2.4-6.1zm-6.3 13.2c-4 0-7.1-3.1-7.1-7.2 0-4 3.1-7.1 7.1-7.1 2 0 3.8.8 5.2 2.2 1.3 1.3 2 3.1 2 5 0 3.9-3.2 7.1-7.2 7.1z"/><path class="st0" d="M14.8 8.6L10 13.4l-2-2c-.2-.2-.6-.2-.8 0-.2.2-.2.6 0 .8l2.2 2.2c.1.1.1.1.2.1.2.2.6.2.8 0l5.1-5.1c.2-.2.2-.6 0-.8-.1-.2-.5-.2-.7 0z"/></svg>