<svg data-name="图层 1" xmlns="http://www.w3.org/2000/svg" viewBox="0 0 200 200"><path d="M135.6 151.8a63 63 0 0 1-36.3 11c-1.7 0-3.4-.1-5.1-.2l-2.1-.3c-1.3-.2-2.6-.3-3.9-.6-.8-.1-1.6-.4-2.3-.5-1.3-.3-2.5-.6-3.7-.9l-1.8-.6c-1.4-.5-2.8-.9-4.2-1.5-.3-.1-.6-.3-.9-.4-1.6-.7-3.2-1.4-4.7-2.2-.1 0-.1-.1-.2-.1a62.71 62.71 0 0 1-14.1-10.4l-.2-.2c-1.3-1.3-2.5-2.6-3.7-4-.2-.3-.5-.6-.7-.9A59.74 59.74 0 0 1 38 102h14.4a1.05 1.05 0 0 0 .9-.5.91.91 0 0 0 0-1L29.1 64.8a1.06 1.06 0 0 0-1.8 0L3.1 100.4a.91.91 0 0 0 0 1 1.19 1.19 0 0 0 .9.5h14.4a78.57 78.57 0 0 0 14.4 45.4l.3.6c.9 1.3 2 2.5 3 3.8a17.1 17.1 0 0 0 1.1 1.4c1.5 1.8 3.1 3.4 4.7 5.1l.5.5a80.18 80.18 0 0 0 18.3 13.5 2.19 2.19 0 0 1 .5.3c1.9 1 3.9 1.9 5.9 2.8.5.2 1 .5 1.5.7 1.7.7 3.5 1.3 5.3 1.9a24.13 24.13 0 0 0 2.5.8c1.6.5 3.2.8 4.8 1.2 1.1.2 2.1.5 3.2.7.5.1.9.2 1.3.3 1.5.3 3 .4 4.6.6.6.1 1.1.1 1.6.2a73.22 73.22 0 0 0 8.1.4 82.58 82.58 0 0 0 46.7-14.5 9.53 9.53 0 0 0 2.4-13.4 9.73 9.73 0 0 0-13.5-2.4zm61.3-53.3a1.05 1.05 0 0 0-.9-.5h-14.4a78.26 78.26 0 0 0-14.4-45.3 5.74 5.74 0 0 0-.4-.7c-1.1-1.6-2.4-3-3.6-4.5-.1-.2-.3-.4-.4-.6a79.37 79.37 0 0 0-30.5-22.4 10.37 10.37 0 0 0-1-.4c-1.9-.8-3.8-1.4-5.7-2.1-.7-.2-1.4-.5-2.1-.7-1.7-.5-3.4-.9-5.1-1.3-1-.2-1.9-.5-2.9-.6l-1.4-.3c-1.3-.2-2.6-.3-3.9-.5l-2.7-.3c-2.2-.2-4.3-.3-6.5-.3-.4 0-.8-.1-1.2-.1h-.2A81.51 81.51 0 0 0 53 32.4a9.53 9.53 0 0 0-2.4 13.4 10 10 0 0 0 13.6 2.4 62.12 62.12 0 0 1 36-11 50.68 50.68 0 0 1 5.5.3c.6.1 1.1.1 1.6.2 1.5.2 2.9.4 4.4.7.6.1 1.3.3 1.9.4 1.4.3 2.8.7 4.2 1.1.4.1.9.3 1.3.4 1.6.5 3.1 1.1 4.6 1.7.2.1.3.1.5.2a63.61 63.61 0 0 1 23.4 17.2l.1.1A58.64 58.64 0 0 1 162 98h-14.4a1.05 1.05 0 0 0-.9.5.91.91 0 0 0 0 1l24.2 35.6a1.06 1.06 0 0 0 1.8 0l24.2-35.6a.91.91 0 0 0 0-1z"/></svg>