<svg version="1.1" id="图层_1" xmlns="http://www.w3.org/2000/svg" x="0" y="0" viewBox="0 0 200 200" xml:space="preserve"><style>.st0{fill:#020202}</style><path class="st0" d="M116.1 197.6c-10 2-20.4 2-30.4 0-4.5-.9-8-4.3-8-7s3.5-3.7 8-2.8c10 2 20.4 2 30.4 0 4.5-.9 8 .1 8 2.8s-3.5 6.1-8 7zm13.8-30l-56.2 16.2c-4.2 1.2-8.8-.1-10-3s1.2-6.3 5.5-7.5l56.2-16.2c4.2-1.2 8.8.1 10 3s-1.3 6.2-5.5 7.5zm11.6-49.4l-1.6 2.9c-1.7 3-3.5 6-3.9 6.8-1.1 1.3-2.6 2.2-4.3 2.7-1.7.4-6.6 1.6-10.8 2.8L73.7 147c-4.2 1.2-8.8-.1-10-3s1.2-6.2 5.5-7.5l48.3-13.9c4.2-1.2 9.2-5 11-8.4 0 0 14.3-26.9 14.3-37.8 0-19.5-19.5-35.4-43.4-35.4S55.9 56.9 55.9 76.4c0 14.1 20.5 48.8 20.5 48.8 2 3.3.1 6-4.1 6s-9.3-2.7-11.3-6c0 0-1.3-2.1-3.9-6.9-9.9-18.2-15-32.3-15-41.9 0-25.7 25.6-46.5 57.1-46.5s57.1 20.9 57.1 46.5c.1 9.5-4.9 23.6-14.8 41.8zm-11.6 30.6L73.7 165c-4.2 1.2-8.8-.1-10-3s1.2-6.3 5.5-7.5l56.2-16.2c4.2-1.2 8.8.1 10 3s-1.3 6.3-5.5 7.5zM146.3 25L157 14.3l7.6 7.6L154 32.6l-7.7-7.6zm-50.8-9.1V.8h10.8v15.1H95.5zM47.8 32.6L37.2 22l7.6-7.6L55.5 25l-7.7 7.6zm118 37.2h15.1v10.8h-15.1V69.8zm-146.7 0h15.1v10.8H19.1V69.8z"/><path class="st0" d="M74.4 130.9l36.4-11.7c4-1.2 8.6-5 10.3-8.3 0 0 13.3-27 13.3-37.8 0-19.6-18.2-35.5-40.6-35.5S53.3 53.3 53.3 72.9c0 14.1 19.2 48.9 19.2 48.9"/></svg>