<svg version="1.1" id="图层_1" xmlns="http://www.w3.org/2000/svg" x="0" y="0" viewBox="0 0 18 15.6" xml:space="preserve"><style>.st0{fill:#231815}</style><path class="st0" d="M10.6 7.5c-.1 0-.3 0-.4-.1l-3.4 3.4c.6.6 1.4.9 2.3.9 1.8-.1 3.2-1.7 3.1-3.6 0-.7-.2-1.4-.6-2v.2c0 .6-.4 1.2-1 1.2z"/><path class="st0" d="M17.8 7.9c-.9-1.7-2.1-3.2-3.7-4.3l-1 1c1.4.9 2.6 2.1 3.4 3.6-1.4 2.5-4.4 5-7.5 5-1.2 0-2.4-.4-3.5-1l-1 .9c1.3.9 2.9 1.4 4.5 1.4 3.8 0 7.3-3.1 8.8-6.1l.2-.3-.2-.2zM14.5 0l-2.4 2.4c-1-.3-2.1-.6-3.1-.6-3.8 0-7.3 3.1-8.8 6.1l-.2.3.2.3c.6 1.3 1.4 2.4 2.5 3.4L0 14.6l.7.7L15.2.7l-.7-.7zm-13 8.2c1.4-2.5 4.3-5 7.5-5 .7 0 1.3.1 2 .3L9.8 4.7c-.3 0-.6-.1-.8-.1h-.1c-1.8.1-3.3 1.7-3.2 3.6 0 .2.1.4.1.6l-2.1 2.1c-.9-.8-1.6-1.6-2.2-2.7z"/></svg>