<svg xmlns="http://www.w3.org/2000/svg" viewBox="0 0 20 20"><defs><style>.cls-2{fill:#fff}</style></defs><g id="图层_2" data-name="图层 2"><g id="图层_1-2" data-name="图层 1"><g id="UI-Elements"><g id="ic-wechat"><path id="路径" d="M20 16.67v.12A3.21 3.21 0 0 1 16.8 20H3.2A3.21 3.21 0 0 1 0 16.79V3.21A3.21 3.21 0 0 1 3.2 0h13.6A3.21 3.21 0 0 1 20 3.21v13.46z" fill="#55bd66" fill-rule="evenodd"/><g id="分组"><path id="形状" class="cls-2" d="M19 12.68c0-2.46-2.46-4.46-5.22-4.46-2.93 0-5.23 2-5.23 4.46s2.3 4.45 5.23 4.45a7.85 7.85 0 0 0 1.84-.3l1.69.92-.46-1.54A4.65 4.65 0 0 0 19 12.68zm-6.92-.77a.62.62 0 0 1 0-1.23.7.7 0 0 1 .77.62.7.7 0 0 1-.73.61zm3.39 0a.62.62 0 1 1 0-1.23.7.7 0 0 1 .76.62.7.7 0 0 1-.72.61z"/><path class="cls-2" d="M13.31 7.68h.61c-.55-2.53-3.25-4.4-6.33-4.4-3.45 0-6.28 2.35-6.28 5.33a5.15 5.15 0 0 0 2.51 4.24l-.62 1.92 2.19-1.1a11.21 11.21 0 0 0 2.2.31 5.63 5.63 0 0 0 .58 0A4.71 4.71 0 0 1 8 12.64a5.13 5.13 0 0 1 5.31-4.96zM9.93 6a.74.74 0 0 1 .79.78.75.75 0 0 1-.79.79.88.88 0 0 1-.93-.81.89.89 0 0 1 .93-.76zM5.54 7.55a.88.88 0 0 1-.94-.79.87.87 0 0 1 .94-.76.74.74 0 0 1 .79.78.75.75 0 0 1-.79.77z"/></g></g></g></g></g></svg>