<svg version="1.1" id="图层_1" xmlns="http://www.w3.org/2000/svg" x="0" y="0" viewBox="0 0 22 22" xml:space="preserve"><style>.st0{fill:#070102}</style><path class="st0" d="M17.9 8.1l-3.1-5.9-.1-.1c-.8-.8-2.1-.8-2.9 0L9 4.7l-1.2-.6c-1-.4-2.2.1-2.6 1.1l-1.3 3c-1.4.3-2.4 1.5-2.4 2.9v6.4c0 1.7 1.4 3 3 3h13.1c1.7 0 3-1.4 3-3V11c-.1-1.5-1.2-2.7-2.7-2.9zm-5.5-5.2c.4-.3 1.1-.4 1.5 0l2.8 5.2H16l-6-2.9 2.4-2.3zM6.1 5.6c.2-.5.6-.7 1-.7h.4L14 8.1H5l1.1-2.5zm13.5 11.9c0 1.1-.9 2-2 2H4.5c-1.1 0-2-.9-2-2v-6.4c0-.9.6-1.6 1.4-1.9h14.3c.8.3 1.4 1 1.4 1.9v6.4z"/><path class="st0" d="M16.2 12.4H5.8c-.2 0-.4.2-.5.5 0 .3.2.5.5.5h10.4c.3 0 .5-.2.5-.5s-.2-.5-.5-.5z"/><circle class="st0" cx="15" cy="16.4" r="1"/></svg>