<svg version="1.1" id="图层_9" xmlns="http://www.w3.org/2000/svg" x="0" y="0" viewBox="0 0 22 23" xml:space="preserve"><style>.st0{fill:#231815}</style><path class="st0" d="M18.8 3.6H3.3C2 3.6 1 4.8 1 6.1V17c-.1 1.3 1 2.5 2.3 2.6h15.4c1.3-.1 2.4-1.2 2.3-2.6V6.1c.1-1.3-.9-2.5-2.2-2.5zm-.9 14.9H4.2c-1.2 0-2.2 0-2.2-2.4V7c0-1.3 0-2.4 2.2-2.4h13.6S20 4.3 20 7l.1 9.1c0 1.3 0 2.4-2.2 2.4z"/><path class="st0" d="M11.5 7.9h6.3v1h-6.3zm0 3h5.1v1h-5.1zm-4.1.2c.9-.5 1.2-1.7.7-2.6-.4-.8-1.5-1.2-2.4-.8h-.1c-.9.5-1.2 1.7-.7 2.6.1.4.4.7.7.8-1.5.5-2.5 1.9-2.4 3.4 0 .2.2.3.4.3h5.8c.5 0 .4-.7.4-.8-.2-1.3-1.1-2.4-2.4-2.9zm4.1 2.8h7.4v1h-7.4z"/></svg>