<svg version="1.1" id="图层_1" xmlns="http://www.w3.org/2000/svg" x="0" y="0" viewBox="0 0 22 23" xml:space="preserve"><style>.st0{fill:#231815}</style><path class="st0" d="M11 1.5C5.5 1.5 1 6 1 11.5s4.5 10 10 10 10-4.5 10-10-4.5-10-10-10zm3.5 18.3c-2.2.9-4.8.9-7 0A8.7 8.7 0 0 1 2.7 15c-.9-2.2-.9-4.8 0-7a8.7 8.7 0 0 1 4.8-4.8c1.1-.5 2.3-.7 3.5-.7s2.4.2 3.5.7c2.2.9 3.9 2.6 4.8 4.8.9 2.2.9 4.8 0 7a8.7 8.7 0 0 1-4.8 4.8z"/><path class="st0" d="M9.2 10.3c.1.5.3 1 .6 1.4.3.3.7.6 1.2.6s1-.3 1.2-.6l.1-.1c.3-.4.4-.8.4-1.2.2 0 .4-.2.4-.4 0-.1-.1-.3-.2-.4.1-.3.2-.6.2-.8 0-1.2-.9-2.2-2.1-2.2s-2.1 1-2.1 2.2c0 .2 0 .5.1.7-.1.1-.2.2-.2.4s.2.4.4.4zM6 8.9c0 .6.5 1.1 1.1 1.2.6-.1 1-.6 1-1.2.1 0 .2-.1.2-.2s0-.2-.1-.2c0-.1.1-.3.1-.4 0-.7-.5-1.3-1.2-1.3s-1.2.6-1.2 1.3c0 .1 0 .3.1.4-.2 0-.2.1-.2.2s.1.2.2.2zm7.8 0c0 .6.5 1.1 1.1 1.2.6-.1 1.1-.6 1.1-1.2.1 0 .2-.1.2-.2s0-.2-.1-.2c0-.1.1-.3.1-.4 0-.7-.5-1.2-1.2-1.2s-1.2.5-1.2 1.2c0 .1 0 .3.1.4-.2 0-.2.1-.3.2 0 .1.1.2.2.2zm1.9 1.6h-.2c-.2.1-.5.2-.7.2-.3 0-.5-.1-.7-.2H14c-.3.1-.6.2-.8.3-.1.5-.4.9-.8 1.3h5.1c.1 0 .1 0 .1-.1v-.5c-.5-.5-1.1-.8-1.9-1zm-.3 4.1c-.7-.9-1.7-1.5-2.9-1.7h-.3c-.8.4-1.7.4-2.5 0h-.2c-1.2.3-2.2.9-3.1 1.7l-.1.1v.7c0 .1.1.2.2.2h8.8c.1 0 .2-.1.2-.2v-.7c0-.1 0-.1-.1-.1zm-6.7-3.8c-.2-.1-.5-.2-.7-.3h-.1c-.2.1-.5.2-.7.2-.3 0-.5-.1-.7-.2h-.3c-.7.2-1.3.5-1.8 1v.5c0 .1 0 .1.1.1h5c-.4-.4-.6-.8-.8-1.3z"/></svg>