<svg version="1.1" id="图层_1" xmlns="http://www.w3.org/2000/svg" x="0" y="0" viewBox="0 0 22 22" xml:space="preserve"><style>.st0{fill:#060001}</style><path class="st0" d="M17.9 2H6C4.5 2 3.3 3.2 3.3 4.7v5.5c0 .3.2.5.5.5s.5-.2.5-.5V4.7C4.3 3.8 5.1 3 6 3h11.9c.9 0 1.7.8 1.7 1.7v12.2c0 .9-.8 1.7-1.7 1.7H6c-.9 0-1.7-.8-1.7-1.7 0-.3-.2-.5-.5-.5s-.5.2-.5.5c0 1.5 1.2 2.7 2.7 2.7h11.9c1.5 0 2.7-1.2 2.7-2.7V4.7c0-1.5-1.2-2.7-2.7-2.7z"/><path class="st0" d="M9.6 13c-.4 0-.7.3-.7.7 0 .4.3.7.7.7h1.8V16c0 .4.3.7.7.7.4 0 .7-.3.7-.7v-1.5h1.8c.4 0 .7-.3.7-.7-.1-.6-.4-.9-.8-.9h-1.8v-1.7h1.8c.4 0 .7-.3.7-.7s-.3-.7-.7-.7h-1.8v-1l2.1-1.7c.3-.2.3-.6.1-.8l-.1-.1c-.2-.3-.6-.3-.8-.1l-2 1.6L10 6c-.2-.2-.6-.1-.8.1l-.1.1c-.2.3-.2.7.1.9l2.1 1.7v1.1H9.6c-.4 0-.7.3-.7.7 0 .4.3.7.7.7h1.8V13H9.6zm-5.5 2l1.2-.7c.1 0 .2-.1.3-.2.3-.2.3-.6.1-.9l-.1-.1c-.1-.1-.2-.1-.3-.2l-1.2-.7c-.3-.1-.7 0-.8.3-.1.1-.1.2-.1.3v.1H1.8c-.3 0-.6.3-.7.7 0 .4.3.7.7.7h1.4v.3c0 .4.4.7.9.4z"/></svg>