<svg version="1.1" id="图层_1" xmlns="http://www.w3.org/2000/svg" x="0" y="0" viewBox="0 0 22 22" xml:space="preserve"><style>.st0{fill:#070102}</style><path class="st0" d="M19.5 9.2L18 8.5V4.2c0-1.3-1-2.3-2.3-2.3H6.5C5.2 1.9 4.1 3 4.1 4.2v4.2l-1.6.7c-.1.1-1.1.6-1.1 1.4v8.3c0 .9.7 1.7 1.6 1.7h15.9c.9 0 1.7-.8 1.7-1.7v-8.3c0-.7-.9-1.2-1.1-1.3zm-14.4-5c0-.7.6-1.3 1.3-1.3h9.2c.7 0 1.3.6 1.3 1.4v6.8l-5 .9c-.6.1-1.2.1-1.8 0l-5-1V4.2zm14.5 14.7c0 .4-.3.7-.7.7H3c-.4 0-.7-.3-.7-.7v-8.3c0-.1.3-.4.5-.5L4 9.6V12l6 1c.3.1.7.1 1 .1.4 0 .7 0 1.1-.1l5.9-1.1V9.6l1 .5c.3.1.6.4.6.6v8.2z"/><path class="st0" d="M11.3 6.1h3.1c.2 0 .3-.1.3-.3v-.3c0-.1-.1-.3-.3-.3h-3.1c-.2 0-.3.1-.3.3v.4c0 .1.2.2.3.2zm0 1.8h3.1c.2 0 .3-.1.3-.3v-.3c0-.2-.1-.3-.3-.3h-3.1c-.2 0-.3.1-.3.3v.4c0 .1.2.2.3.2zm3.5 1.6v-.4c0-.2-.1-.3-.3-.3H7.7c-.1.1-.2.2-.2.3v.4c0 .2.1.3.3.3h6.7c.1 0 .3-.2.3-.3zM8.7 7.9c.8 0 1.4-.7 1.4-1.4 0-.8-.6-1.3-1.4-1.3-.7 0-1.4.6-1.4 1.4v.1c0 .6.6 1.2 1.4 1.2z"/></svg>