<svg version="1.1" id="图层_6" xmlns="http://www.w3.org/2000/svg" x="0" y="0" viewBox="0 0 22 23" xml:space="preserve"><style>.st0{fill:#221714}</style><path class="st0" d="M19.6 9.5c0-.3-.2-.5-.5-.5s-.5.2-.5.5v7.8c.1.5-.1 1.2-.4 2-.1.4-.4.6-.8.8-.5.2-1.2.5-2 .4H5.7c-.5.1-1.2-.1-2-.4-.4-.1-.6-.4-.8-.8-.2-.5-.5-1.2-.4-2V7.4c0-.8.1-1.4.4-1.9.1-.4.4-.6.8-.8.5-.2 1.2-.5 2-.4h7.7c.3 0 .5-.2.5-.5s-.2-.5-.5-.5H5.8c-1-.1-1.8.2-2.5.5-.5.3-1 .7-1.3 1.3-.3.7-.4 1.7-.4 2.3v9.7c-.1 1 .2 1.8.5 2.5.3.5.7 1 1.3 1.3.5.2 1.3.5 2 .5h9.9c1 .1 1.8-.2 2.5-.5.5-.3 1-.7 1.3-1.3.3-.6.6-1.6.4-2.4V9.5z"/><path class="st0" d="M19.9 3.3l-.6-.6c-.6-.6-1.6-.7-2.2-.1l-.1.1-8.6 8.6-.7 2.8c-.1.3 0 .5.2.7.1.1.3.2.4.2h.3l2.7-.7L20 5.6c.3-.3.4-.7.4-1.1s-.2-.8-.5-1.2zM8.7 13.8l.5-1.6 1.2 1.2-1.7.4zm2.6-.9l-1.5-1.5 6.8-6.7 1.5 1.5-6.8 6.7zm8-8.2l-.6.6-1.5-1.5.5-.5c.3-.1.7-.1.9.2l.6.5c.2.2.3.5.1.7z"/></svg>