<svg version="1.1" id="图层_1" xmlns="http://www.w3.org/2000/svg" x="0" y="0" viewBox="0 0 22 22" xml:space="preserve"><style>.st0{fill:#060001}</style><path class="st0" d="M16 3.4c0-.3-.2-.5-.5-.5H5.1c-.5 0-1 .2-1.4.6-.4.3-.6.8-.6 1.3v12.7l-.8-.5c-.3-.1-.6 0-.7.2-.1.2-.1.5.2.7l1.6 1c.1 0 .2.1.3.1.1 0 .2 0 .2-.1.2-.1.3-.3.3-.4V4.8c0-.3.1-.5.3-.7.1-.1.4-.2.6-.2h10.4c.3 0 .5-.3.5-.5zm4.3.6l-1.7-1c-.2-.1-.3-.1-.5 0s-.3.3-.3.4V17c0 .5-.4.9-1 1H6.5c-.3 0-.5.3-.5.5s.2.5.5.5h10.4c1.1 0 2-.9 2-2V4.3l.9.5c.2.2.5.1.6-.1.2-.3.1-.6-.1-.7z"/><path class="st0" d="M13.3 11.2c.3 0 .6-.3.6-.6s-.3-.6-.6-.6h-1.6v-.9l1.9-1.5c.2-.2.3-.5.1-.8l-.1-.1c-.2-.2-.5-.3-.8-.1L11.1 8 9.3 6.5c-.2-.1-.6-.1-.7.1l-.1.1c-.2.3-.2.6 0 .8l2 1.5v1H8.9c-.3 0-.6.3-.6.6s.3.6.6.6h1.6v1.5H8.9c-.3 0-.6.3-.6.6s.3.6.6.6h1.6v1.4c0 .3.3.6.6.6s.6-.3.6-.6V14h1.6c.3 0 .6-.3.6-.6s-.2-.6-.6-.6h-1.6v-1.5h1.6z"/></svg>