<svg version="1.1" id="图层_1" xmlns="http://www.w3.org/2000/svg" x="0" y="0" viewBox="0 0 22 22" xml:space="preserve"><style>.st0{fill:#040000}</style><path class="st0" d="M13.9 11.6c-.8 0-1.4.6-1.4 1.4s.6 1.4 1.4 1.4c.7 0 1.4-.6 1.4-1.4s-.6-1.4-1.4-1.4z"/><path class="st0" d="M19 9.9V8.4C19 7.1 17.9 6 16.6 6H4.1c-.5 0-1 .2-1.4.5V5.2c0-.9.7-1.4 1.4-1.4h12.5c.7 0 1.4.7 1.4 1.4 0 .3.2.5.5.5s.5-.2.5-.5c0-1.3-1.1-2.4-2.4-2.4H4.1c-1.3 0-2.4 1.1-2.4 2.4v11.9c0 1.3 1.1 2.4 2.4 2.4h12.5c1.3 0 2.4-1.1 2.4-2.4v-1.2c1-.3 1.7-1.2 1.7-2.3v-1.5c0-1-.8-1.9-1.7-2.2zm-2.4 8.6H4.1c-.9 0-1.4-.7-1.4-1.4V8.4c0-.9.7-1.4 1.4-1.4h12.5c.9 0 1.4.7 1.4 1.4v1.4h-3.8c-1.7 0-3.1 1.4-3.1 3.1 0 1.7 1.4 3.1 3.1 3.1H18v1.1c0 .9-.7 1.4-1.4 1.4zm3.1-4.9c0 .7-.5 1.4-1.4 1.4h-4.1c-1.1 0-2.1-1-2.1-2.1 0-1.2.9-2.1 2.1-2.1h4.1c.8 0 1.4.7 1.4 1.3v1.5z"/></svg>