<svg version="1.1" id="图层_1" xmlns="http://www.w3.org/2000/svg" x="0" y="0" viewBox="0 0 22 22" xml:space="preserve"><style>.st0{fill:#070102}</style><path class="st0" d="M18.8 5v-.3c0-1.4-1.1-2.5-2.5-2.5H4c-1.4 0-2.5 1.1-2.5 2.5V17c0 1.4 1.1 2.5 2.5 2.5h4.5c-.8 0-1.5-.4-2-1 .5.6 1.2 1 2 1h7.8c.8 0 1.5-.4 2-1H8.2C7.5 18.3 7 17.7 7 17V7.4c0-.8.7-1.5 1.5-1.5h9.6c.2 0 .5.1.7.2.5.3.8.8.8 1.3V17c0 .7-.5 1.4-1.3 1.5-.5.6-1.2 1-2 1h1.8c1.4 0 2.5-1.1 2.5-2.5V7.4c0-1.1-.7-2-1.8-2.4zM8.5 4.9C7.2 4.9 6 6 6 7.4V17c0 .5.2 1.1.5 1.5H4c-.8 0-1.5-.7-1.5-1.5V4.7c0-.8.7-1.5 1.5-1.5h12.3c.8 0 1.5.7 1.5 1.5V5H8.5z"/><path class="st0" d="M10.8 11c.9 0 1.6-.7 1.6-1.5S11.7 8 10.8 8c-.9 0-1.7.7-1.7 1.5s.8 1.5 1.7 1.5zM18 9.5c0-.1-.1-.3-.3-.3H14c-.1 0-.3.1-.3.3 0 .2.1.3.3.3h3.7c.2 0 .3-.2.3-.3.1 0 .1 0 0 0zm0 2.9c0-.1-.1-.3-.3-.3H9.6c-.1 0-.3.1-.3.3 0 .2.1.3.3.3h8.2c.1 0 .2-.2.2-.3.1 0 .1 0 0 0zm0 2c.1 0 .1 0 0 0 0-.2-.1-.3-.3-.3H9.6c-.1 0-.3.1-.3.3 0 .2.1.3.3.3h8.2c.1 0 .2-.2.2-.3zm-8.4 2.3h4.2c.1 0 .3-.1.3-.3 0-.2-.1-.3-.3-.3H9.6c-.2 0-.3.1-.3.3 0 .1.1.3.3.3zm-5.4-8V9h1.4v-.6H4.2v.3zm0 2v.3h1.4v-.6H4.2v.3zm0 2v.3h1.4v-.6H4.2v.3zm0 1.9v.3h1.4v-.6H4.2v.3z"/></svg>