<svg xmlns="http://www.w3.org/2000/svg" viewBox="0 0 22 23"><path d="M6.6 9c-.6.1-1.1.6-1.1 1.3.1.6.5 1 1.1 1.1.6-.1 1.1-.6 1.1-1.3-.1-.6-.6-1-1.1-1.1zm4.5 0c-.6.1-1.1.6-1.1 1.3.1.6.5 1 1.1 1.1.6-.1 1.1-.6 1.1-1.3-.1-.6-.6-1-1.1-1.1zm4.5 0c-.6.1-1.1.6-1.1 1.3.1.6.5 1 1.1 1.1.6-.1 1.1-.6 1.1-1.3-.1-.6-.6-1-1.1-1.1zm2.2-5.9H4.3C3 3.1 2 4.1 2 5.4v8.8c0 1.3 1 2.4 2.3 2.5h3.4c.6.6 3.1 3.2 3.1 3.2.1.1.3.1.4 0 0 0 1.8-2.1 3-3.2h3.5c1.3-.1 2.3-1.2 2.3-2.5V5.4c.1-1.3-.9-2.3-2.2-2.3zm1.1 11.1c0 .7-.5 1.3-1.2 1.4h-3.4c-.3 0-.6.2-.8.4L11 18.6 8.6 16c-.2-.2-.5-.4-.9-.4H4.2c-.6-.1-1.2-.7-1.2-1.4v-9C3 4.6 3.5 4 4.1 4h13.7c.6 0 1.2.5 1.1 1.2v9z" fill="#231815"/></svg>