<svg version="1.1" id="图层_1" xmlns="http://www.w3.org/2000/svg" x="0" y="0" viewBox="0 0 22 22" xml:space="preserve"><style>.st0{fill:#070102}</style><path class="st0" d="M20.6 5c-.1-1.5-1.4-2.7-2.9-2.7H8.5c-.7-.1-1.5.2-2 .7-.6.5-.9 1.2-.9 2v5.7c-.3-.1-.6-.2-.9-.2h-2c-.7 0-1.3.5-1.4 1.3v6.6c0 1 .8 1.6 1.6 1.7h.7c.3 0 .5 0 .7-.1h13.3c.7.1 1.5-.2 2.1-.7.6-.5.9-1.2.9-2V5zM2.3 18.4v-6.5c.1-.3.2-.4.4-.4h2c.5 0 .9.4.9.9V17c-.1 1-.7 1.8-1.5 2H2.9v.1c-.3-.1-.6-.3-.6-.7zm17.3-1.1c0 .5-.2.9-.5 1.2-.4.3-.8.5-1.4.5H5.9c.4-.5.7-1.2.7-1.9V5c0-.5.2-.9.5-1.2.4-.4.9-.5 1.4-.5h9.2c1 0 1.8.7 1.9 1.7v12.3z"/><ellipse class="st0" cx="10.5" cy="7" rx="1.6" ry="1.5"/><path class="st0" d="M13.7 7.4h3.7c.2 0 .3-.1.3-.3 0-.2-.1-.3-.3-.3h-3.7c-.1 0-.2.1-.3.3 0 .2.1.3.3.3zm3.8 4.1H9.3c-.2 0-.3.2-.3.3 0 .2.1.3.3.3h8.2c.2 0 .3-.1.3-.3s-.1-.3-.3-.3zm0 2H9.3c-.2 0-.3.1-.3.3s.1.3.3.3h8.2c.2 0 .3-.1.3-.3s-.1-.3-.3-.3zm-3.9 2H9.3c-.2 0-.3.1-.3.3s.1.3.3.3h4.3c.2 0 .3-.1.3-.3s-.1-.3-.3-.3z"/></svg>