<svg version="1.1" id="图层_3" xmlns="http://www.w3.org/2000/svg" x="0" y="0" viewBox="0 0 22 23" xml:space="preserve"><style>.st0{fill:#060001}</style><path class="st0" d="M20.1 16.5c-.9-.2-1.7-.5-2.5-.9-.7-.4-2.9-1.6-4-1.6h-.2c-.3 0-.6.2-.8.4-.2.4-.1.8.1 1.2v.1l1 1.1-2.2-.1c-3-.2-5.7-2.3-6.9-3.6-.5-.6-1.2-.9-2-1-.4 0-.7.1-.9.4-.3.5-.3 1-.1 1.5 1.5 5.8 8 6.9 8.1 6.9H20c.3 0 .5-.2.5-.4V17c0-.2-.1-.4-.4-.5zm-.6 3.5H9.9c-.6-.1-6-1.2-7.3-6.2-.2-.6-.1-.7-.1-.7h.1c.5.1 1 .3 1.3.6 1.2 1.3 4.2 3.7 7.6 3.9 2.9.2 3.3.2 3.4.2.2 0 .4-.1.5-.2.1-.2.1-.3 0-.5l-1.6-1.9c-.1-.1-.1-.2-.1-.3h.1c1.3.3 2.5.8 3.5 1.5.7.4 1.5.8 2.4 1l-.2 2.6zM3.6 11.4c.1.3.3.4.6.4.3-.1.4-.3.4-.6v-.3c-.5-3.7 2.2-7.1 6-7.6s7.4 2.1 7.9 5.8c.2 1.6-.1 3.1-1 4.5-.1.2-.1.5.1.7.1.1.2.1.3.1.2 0 .3-.1.4-.2 2.2-3.4 1.4-7.8-1.9-10.2-3.5-2.6-8.5-2-11.2 1.3C3.8 7 3.3 9.1 3.6 11.2c-.1 0 0 .1 0 .2z"/><path class="st0" d="M13.9 9.4c0-.3-.2-.5-.5-.5H12V8l1.7-1.4c.2-.2.2-.5.1-.7l-.1-.1c-.2-.2-.5-.3-.7-.1L11.4 7 9.8 5.7c-.2-.2-.5-.1-.7 0v.1c-.2.2-.2.5 0 .7l1.7 1.4v.9H9.5c-.3 0-.6.2-.6.5s.2.5.5.5h1.4v1.4H9.5c-.3 0-.5.2-.5.5s.3.5.5.5h1.4v1.3c0 .3.2.5.5.5s.5-.2.5-.5v-1.2h1.4c.3 0 .5-.2.5-.5.2-.3 0-.5-.4-.6H12V9.9h1.4c.3 0 .5-.2.5-.5z"/></svg>