<svg version="1.1" id="图层_1" xmlns="http://www.w3.org/2000/svg" x="0" y="0" viewBox="0 0 22 22" xml:space="preserve"><style>.st0{fill:#060001}</style><path class="st0" d="M18.7 16.6c-.3 0-.5.2-.5.5 0 1-.8 1.8-1.8 1.8H4.1c-1 0-1.8-.8-1.8-1.8V4.5c0-1 .8-1.8 1.8-1.8h12.2c1 0 1.8.8 1.8 1.8v5.7c0 .3.2.5.5.5s.5-.2.5-.5V4.5c0-1.6-1.2-2.8-2.8-2.8H4.1c-1.6 0-2.8 1.2-2.8 2.8v12.6c0 1.6 1.2 2.8 2.8 2.8h12.3c1.6 0 2.8-1.2 2.8-2.8 0-.3-.2-.5-.5-.5z"/><path class="st0" d="M10.4 16.7c.4 0 .7-.3.7-.7v-1.6h1.8c.4 0 .7-.3.7-.7 0-.4-.2-.7-.6-.7h-2v-1.7h1.8c.4 0 .7-.3.7-.7 0-.4-.3-.7-.7-.7H11v-1L13.2 7c.3-.2.3-.6.1-.8l-.1-.2c-.2-.3-.6-.3-.8-.1l-2 1.6-2.1-1.6c-.3-.2-.6-.2-.9 0l-.1.2c-.2.2-.2.6.1.9l2.2 1.7v1.1H7.8c-.4 0-.7.3-.7.7s.3.7.7.7h1.9V13H7.8c-.4 0-.7.3-.7.7 0 .4.3.7.7.7h1.9V16c0 .4.3.7.7.7zm10.3-3.4c0-.1-.1-.1-.1-.1l-1.6-.9c-.3-.1-.7 0-.9.3v.4h-1.5c-.3 0-.6.3-.7.7 0 .4.3.7.7.7h1.5v.2c0 .5.5.7.9.5l1.6-.9c.3-.2.3-.6.1-.9z"/></svg>