<svg xmlns="http://www.w3.org/2000/svg" viewBox="0 0 200 200"><path d="M149.5 115.6c-12.2 0-23 6.3-29.2 15.9l-47.1-24c1.7-3.8 2.6-8 2.6-12.5 0-4.2-.8-8.2-2.3-11.9l69-30.8c4.2 5.5 10.9 9.1 18.4 9.1 12.8 0 23.2-10.4 23.2-23.2S173.8 15.1 161 15.1s-23.2 10.4-23.2 23.2c0 1.6.2 3.2.5 4.7L68 74.3C62.4 68 54.2 64.1 45.1 64.1 28 64.1 14.2 77.9 14.2 95s13.7 30.9 30.8 30.9c8.9 0 16.9-3.7 22.5-9.7l48.5 24.7c-.9 3-1.3 6.2-1.3 9.5 0 19.2 15.5 34.8 34.8 34.8 19.2 0 34.8-15.6 34.8-34.8 0-19.2-15.6-34.8-34.8-34.8zM161 25.4c7.1 0 12.9 5.8 12.9 12.9 0 7.2-5.8 12.9-12.9 12.9s-12.9-5.8-12.9-12.9c0-7.1 5.8-12.9 12.9-12.9zM45.1 115.6c-11.4 0-20.6-9.2-20.6-20.6s9.2-20.6 20.6-20.6c11.4 0 20.6 9.2 20.6 20.6s-9.2 20.6-20.6 20.6zm104.3 59.3c-13.6 0-24.5-11-24.5-24.5 0-13.6 11-24.5 24.5-24.5 13.6 0 24.5 11 24.5 24.5s-10.9 24.4-24.5 24.5z"/></svg>