<svg version="1.1" id="图层_1" xmlns="http://www.w3.org/2000/svg" x="0" y="0" viewBox="0 0 22 22" xml:space="preserve"><style>.st0{fill:#060001}</style><path class="st0" d="M17 3.8c-2-1.4-4.4-2.1-6.8-1.8-2.5.3-4.6 1.5-6 3.5C3 7 2.3 9 2.3 11c0 .3.2.5.5.5s.5-.2.5-.5c0-1.8.6-3.5 1.7-4.9C6.3 4.4 8.2 3.3 10.3 3c2.2-.3 4.3.3 6.1 1.6 1.7 1.3 2.8 3.2 3.1 5.3.3 2.2-.2 4.3-1.5 6.1-1.3 1.7-3.2 2.9-5.3 3.2-2.2.3-4.3-.2-6.1-1.6-.2-.2-.5-.1-.7.1s-.1.5.1.7c1.6 1.2 3.5 1.9 5.5 1.9.4 0 .9 0 1.3-.1 2.4-.3 4.6-1.6 6-3.6 3-4.1 2.2-9.8-1.8-12.8z"/><path class="st0" d="M9.5 12.6c-.3 0-.5.2-.5.5v.1c0 .3.2.5.5.5h1.4V15c0 .3.2.5.5.5h.1c.3 0 .5-.2.5-.5v-1.3h1.5c.2 0 .5-.2.5-.5v-.1c0-.3-.2-.5-.5-.5H12v-1.3h1.5c.2 0 .5-.2.5-.5v-.1c0-.3-.2-.5-.5-.5H12v-.7h.2l1.7-1.4c0-.2.1-.5-.1-.7-.2-.3-.5-.3-.7-.2l-1.6 1.3-1.6-1.3c-.2-.1-.5-.1-.6.1l-.1.1c-.2.2-.1.5.1.7l1.6 1.3v.8H9.5c-.3 0-.5.2-.5.5v.1c0 .3.2.5.5.5h1.4v1.3H9.5zM7 14.2l-1.4-.8c-.3-.2-.8.1-.8.5v.3H2.3c-.3 0-.5.2-.5.5s.2.5.5.5h2.5v.3c0 .4.4.6.8.4l1.4-.8c.3-.2.3-.7 0-.9z"/></svg>