<svg version="1.1" id="Layer_1" xmlns="http://www.w3.org/2000/svg" x="0" y="0" viewBox="0 0 20 20" xml:space="preserve"><style>.st1{fill:#5a81ff}</style><g id="Page-1"><g id="_x37_.-PC彩票_x2F_-购彩大厅_x2F_分享进去聊天室_x2F_大房" transform="translate(-1560 -958)"><g id="icn_上载图片" transform="translate(1560 958)"><path id="Rectangle" d="M4.8.8h10.5c2.2 0 4 1.8 4 4v10.5c0 2.2-1.8 4-4 4H4.8c-2.2 0-4-1.8-4-4V4.8c0-2.3 1.7-4 4-4z" fill="none" stroke="#5a81ff" stroke-width="1.5"/><path id="Path-7" class="st1" d="M.8 15.3l4.4-4.4c.8-1 1.6-1 2.4 0 1.2 1.5 1.6 1.2 2 .6.3-.4 1.5-1.7 3.5-3.8.4-.4.8-.4 1.3 0s2 1.8 4.5 4.2v6.3l-9.1 1.6-7.4-1-1.6-3.5z"/><circle id="Oval" class="st1" cx="6" cy="6" r="2"/></g></g></g></svg>