<svg xmlns="http://www.w3.org/2000/svg" viewBox="0 0 20 20"><path d="M0 10C0 4.5 4.5 0 10 0s10 4.5 10 10-4.5 10-10 10S0 15.5 0 10zm14.4 2.7c-.1.2-.4.5-.9.9-.9.6-2 1-3.6 1-1.5 0-2.7-.4-3.6-1-.5-.4-.8-.7-.9-.9-.2-.3-.6-.4-.9-.3s-.2.6-.1.9c.2.4.6.9 1.3 1.3 1.1.8 2.5 1.2 4.3 1.2 1.8 0 3.2-.5 4.3-1.2.7-.5 1.1-1 1.3-1.3.2-.3.1-.7-.3-.9-.3-.1-.7 0-.9.3zm-2.1-5c0 .9.6 1.7 1.3 1.7S15 8.6 15 7.7 14.4 6 13.7 6s-1.4.7-1.4 1.7zm-4.6 0c0-1-.6-1.7-1.4-1.7S5 6.7 5 7.7s.6 1.7 1.3 1.7 1.4-.8 1.4-1.7z" fill="#5a81ff"/></svg>