<svg class="icon" viewBox="0 0 1024 1024" xmlns="http://www.w3.org/2000/svg" width="200" height="200"><defs><style/></defs><path d="M514.594 71.112c-144.11 0-260.979 118.46-260.979 264.558 0 88.783 43.497 166.928 109.711 214.898-135.361 59.354-230.159 195.858-230.159 354.931h.894c1.541 21.375 18.641 38.377 40.117 38.377s38.575-17.051 40.117-38.377h.645c0-.944-.099-1.79-.099-2.734v-.149c0-.099-.05-.149-.05-.199.05-159.967 120-291.054 273.009-304.924 8.948.944 17.598 2.734 26.844 2.734 144.11 0 260.979-118.46 260.979-264.558S658.704 71.111 514.594 71.111zm0 447.343c-99.769 0-180.698-81.972-180.698-183.183s80.879-183.183 180.698-183.183c99.719 0 180.647 81.972 180.647 183.183s-80.879 183.183-180.647 183.183zm381.427 384.16c0-.348-.199-.645-.199-.994-1.043-105.038-43.397-200.034-111.35-269.131-7.157-7.357-17.001-11.98-27.986-11.98-21.574 0-39.122 17.747-39.122 39.668 0 11.135 4.573 21.127 11.83 28.334l-.099.05c52.742 55.229 85.302 130.589 85.302 213.853 0 1.043-.149 1.987-.149 3.034h.994c1.491 21.375 18.691 38.377 40.117 38.377 21.475 0 38.575-17.051 40.117-38.377h.597c0-.796-.099-1.491-.099-2.287-.05-.149.05-.348.05-.547z"/></svg>